<mxfile host="65bd71144e">
    <diagram id="ghxXDDT8zd5DCKdsmAcu" name="main">
        <mxGraphModel dx="1386" dy="787" grid="1" gridSize="10" guides="1" tooltips="1" connect="1" arrows="1" fold="1" page="1" pageScale="1" pageWidth="850" pageHeight="1100" math="0" shadow="0">
            <root>
                <mxCell id="0"/>
                <mxCell id="1" parent="0"/>
                <mxCell id="2" value="" style="rounded=1;whiteSpace=wrap;html=1;" vertex="1" parent="1">
                    <mxGeometry x="380" y="280" width="120" height="60" as="geometry"/>
                </mxCell>
                <mxCell id="3" value="DOCUMENT PROCESSOR AI" style="text;html=1;strokeColor=none;fillColor=none;align=center;verticalAlign=middle;whiteSpace=wrap;rounded=0;" vertex="1" parent="1">
                    <mxGeometry x="250" y="220" width="140" height="30" as="geometry"/>
                </mxCell>
                <UserObject label="" mermaidData="{&#10;  &quot;data&quot;: &quot;graph TD\n    A[Employee Uploads Excel File] --&gt; B[AI Processes File and Generates Report]\n    B --&gt; C[Employee Reviews Document and Report]\n    C --&gt; D[Employee Approves Document]\n    D --&gt; E[Generate and Send OTP to Employee's Email]\n    E --&gt; F[Employee Receives OTP]\n    F --&gt; G[Employee Enters OTP into System]\n    G --&gt; H{Verify OTP}\n    H --&gt;|Valid| I[Save Raw and Final Report to Enterprise System]\n    H --&gt;|Invalid| J[Notify Employee of Invalid OTP]\n    J --&gt; E\n    I --&gt; K[Completion Confirmation]\n    K --&gt; L[End of Process]\n&quot;,&#10;  &quot;config&quot;: {&#10;    &quot;theme&quot;: &quot;neutral&quot;,&#10;    &quot;arrowMarkerAbsolute&quot;: false,&#10;    &quot;flowchart&quot;: {&#10;      &quot;htmlLabels&quot;: false&#10;    },&#10;    &quot;sequence&quot;: {&#10;      &quot;diagramMarginX&quot;: 50,&#10;      &quot;diagramMarginY&quot;: 10,&#10;      &quot;actorMargin&quot;: 50,&#10;      &quot;width&quot;: 150,&#10;      &quot;height&quot;: 65,&#10;      &quot;boxMargin&quot;: 10,&#10;      &quot;boxTextMargin&quot;: 5,&#10;      &quot;noteMargin&quot;: 10,&#10;      &quot;messageMargin&quot;: 35,&#10;      &quot;mirrorActors&quot;: true,&#10;      &quot;bottomMarginAdj&quot;: 1,&#10;      &quot;useMaxWidth&quot;: true,&#10;      &quot;rightAngles&quot;: false,&#10;      &quot;showSequenceNumbers&quot;: false&#10;    },&#10;    &quot;gantt&quot;: {&#10;      &quot;titleTopMargin&quot;: 25,&#10;      &quot;barHeight&quot;: 20,&#10;      &quot;barGap&quot;: 4,&#10;      &quot;topPadding&quot;: 50,&#10;      &quot;leftPadding&quot;: 75,&#10;      &quot;gridLineStartPadding&quot;: 35,&#10;      &quot;fontSize&quot;: 11,&#10;      &quot;fontFamily&quot;: &quot;\&quot;Open-Sans\&quot;, \&quot;sans-serif\&quot;&quot;,&#10;      &quot;numberSectionStyles&quot;: 4,&#10;      &quot;axisFormat&quot;: &quot;%Y-%m-%d&quot;&#10;    }&#10;  }&#10;}" id="7CFw4D2kR-g82GWqrkWw-4">
                    <mxCell style="shape=image;noLabel=1;verticalAlign=top;imageAspect=1;image=data:image/svg+xml,PHN2ZyB2aWV3Qm94PSIwIDAgNjcyLjYyNSAxMDQ3LjAxMzI4Mjc3NTg3OSIgc3R5bGU9Im1heC13aWR0aDogNjcyLjYyNXB4OyIgaGVpZ2h0PSIxMDQ3LjAxMzI4Mjc3NTg3OSIgYXJpYS1sYWJlbGxlZGJ5PSJjaGFydC10aXRsZS1nZU1lcm1haWRPdXRwdXQtMTcyNjE2MTQxMDEyOCBjaGFydC1kZXNjLWdlTWVybWFpZE91dHB1dC0xNzI2MTYxNDEwMTI4IiByb2xlPSJpbWciIHhtbG5zOnhsaW5rPSJodHRwOi8vd3d3LnczLm9yZy8xOTk5L3hsaW5rIiB4bWxucz0iaHR0cDovL3d3dy53My5vcmcvMjAwMC9zdmciIHdpZHRoPSIxMDAlIiBpZD0iZ2VNZXJtYWlkT3V0cHV0LTE3MjYxNjE0MTAxMjgiPjx0aXRsZSBpZD0iY2hhcnQtdGl0bGUtZ2VNZXJtYWlkT3V0cHV0LTE3MjYxNjE0MTAxMjgiPjwvdGl0bGU+PGRlc2MgaWQ9ImNoYXJ0LWRlc2MtZ2VNZXJtYWlkT3V0cHV0LTE3MjYxNjE0MTAxMjgiPjwvZGVzYz48c3R5bGU+I2dlTWVybWFpZE91dHB1dC0xNzI2MTYxNDEwMTI4IHtmb250LWZhbWlseToidHJlYnVjaGV0IG1zIix2ZXJkYW5hLGFyaWFsLHNhbnMtc2VyaWY7Zm9udC1zaXplOjE2cHg7ZmlsbDojY2NjO30jZ2VNZXJtYWlkT3V0cHV0LTE3MjYxNjE0MTAxMjggLmVycm9yLWljb257ZmlsbDojYTQ0MTQxO30jZ2VNZXJtYWlkT3V0cHV0LTE3MjYxNjE0MTAxMjggLmVycm9yLXRleHR7ZmlsbDojZGRkO3N0cm9rZTojZGRkO30jZ2VNZXJtYWlkT3V0cHV0LTE3MjYxNjE0MTAxMjggLmVkZ2UtdGhpY2tuZXNzLW5vcm1hbHtzdHJva2Utd2lkdGg6MnB4O30jZ2VNZXJtYWlkT3V0cHV0LTE3MjYxNjE0MTAxMjggLmVkZ2UtdGhpY2tuZXNzLXRoaWNre3N0cm9rZS13aWR0aDozLjVweDt9I2dlTWVybWFpZE91dHB1dC0xNzI2MTYxNDEwMTI4IC5lZGdlLXBhdHRlcm4tc29saWR7c3Ryb2tlLWRhc2hhcnJheTowO30jZ2VNZXJtYWlkT3V0cHV0LTE3MjYxNjE0MTAxMjggLmVkZ2UtcGF0dGVybi1kYXNoZWR7c3Ryb2tlLWRhc2hhcnJheTozO30jZ2VNZXJtYWlkT3V0cHV0LTE3MjYxNjE0MTAxMjggLmVkZ2UtcGF0dGVybi1kb3R0ZWR7c3Ryb2tlLWRhc2hhcnJheToyO30jZ2VNZXJtYWlkT3V0cHV0LTE3MjYxNjE0MTAxMjggLm1hcmtlcntmaWxsOmxpZ2h0Z3JleTtzdHJva2U6bGlnaHRncmV5O30jZ2VNZXJtYWlkT3V0cHV0LTE3MjYxNjE0MTAxMjggLm1hcmtlci5jcm9zc3tzdHJva2U6bGlnaHRncmV5O30jZ2VNZXJtYWlkT3V0cHV0LTE3MjYxNjE0MTAxMjggc3Zne2ZvbnQtZmFtaWx5OiJ0cmVidWNoZXQgbXMiLHZlcmRhbmEsYXJpYWwsc2Fucy1zZXJpZjtmb250LXNpemU6MTZweDt9I2dlTWVybWFpZE91dHB1dC0xNzI2MTYxNDEwMTI4IC5sYWJlbHtmb250LWZhbWlseToidHJlYnVjaGV0IG1zIix2ZXJkYW5hLGFyaWFsLHNhbnMtc2VyaWY7Y29sb3I6I2NjYzt9I2dlTWVybWFpZE91dHB1dC0xNzI2MTYxNDEwMTI4IC5jbHVzdGVyLWxhYmVsIHRleHR7ZmlsbDojRjlGRkZFO30jZ2VNZXJtYWlkT3V0cHV0LTE3MjYxNjE0MTAxMjggLmNsdXN0ZXItbGFiZWwgc3Bhbntjb2xvcjojRjlGRkZFO30jZ2VNZXJtYWlkT3V0cHV0LTE3MjYxNjE0MTAxMjggLmxhYmVsIHRleHQsI2dlTWVybWFpZE91dHB1dC0xNzI2MTYxNDEwMTI4IHNwYW57ZmlsbDojY2NjO2NvbG9yOiNjY2M7fSNnZU1lcm1haWRPdXRwdXQtMTcyNjE2MTQxMDEyOCAubm9kZSByZWN0LCNnZU1lcm1haWRPdXRwdXQtMTcyNjE2MTQxMDEyOCAubm9kZSBjaXJjbGUsI2dlTWVybWFpZE91dHB1dC0xNzI2MTYxNDEwMTI4IC5ub2RlIGVsbGlwc2UsI2dlTWVybWFpZE91dHB1dC0xNzI2MTYxNDEwMTI4IC5ub2RlIHBvbHlnb24sI2dlTWVybWFpZE91dHB1dC0xNzI2MTYxNDEwMTI4IC5ub2RlIHBhdGh7ZmlsbDojMWYyMDIwO3N0cm9rZTojODFCMURCO3N0cm9rZS13aWR0aDoxcHg7fSNnZU1lcm1haWRPdXRwdXQtMTcyNjE2MTQxMDEyOCAubm9kZSAubGFiZWx7dGV4dC1hbGlnbjpjZW50ZXI7fSNnZU1lcm1haWRPdXRwdXQtMTcyNjE2MTQxMDEyOCAubm9kZS5jbGlja2FibGV7Y3Vyc29yOnBvaW50ZXI7fSNnZU1lcm1haWRPdXRwdXQtMTcyNjE2MTQxMDEyOCAuYXJyb3doZWFkUGF0aHtmaWxsOmxpZ2h0Z3JleTt9I2dlTWVybWFpZE91dHB1dC0xNzI2MTYxNDEwMTI4IC5lZGdlUGF0aCAucGF0aHtzdHJva2U6bGlnaHRncmV5O3N0cm9rZS13aWR0aDoyLjBweDt9I2dlTWVybWFpZE91dHB1dC0xNzI2MTYxNDEwMTI4IC5mbG93Y2hhcnQtbGlua3tzdHJva2U6bGlnaHRncmV5O2ZpbGw6bm9uZTt9I2dlTWVybWFpZE91dHB1dC0xNzI2MTYxNDEwMTI4IC5lZGdlTGFiZWx7YmFja2dyb3VuZC1jb2xvcjpoc2woMCwgMCUsIDM0LjQxMTc2NDcwNTklKTt0ZXh0LWFsaWduOmNlbnRlcjt9I2dlTWVybWFpZE91dHB1dC0xNzI2MTYxNDEwMTI4IC5lZGdlTGFiZWwgcmVjdHtvcGFjaXR5OjAuNTtiYWNrZ3JvdW5kLWNvbG9yOmhzbCgwLCAwJSwgMzQuNDExNzY0NzA1OSUpO2ZpbGw6aHNsKDAsIDAlLCAzNC40MTE3NjQ3MDU5JSk7fSNnZU1lcm1haWRPdXRwdXQtMTcyNjE2MTQxMDEyOCAuY2x1c3RlciByZWN0e2ZpbGw6aHNsKDE4MCwgMS41ODczMDE1ODczJSwgMjguMzUyOTQxMTc2NSUpO3N0cm9rZTpyZ2JhKDI1NSwgMjU1LCAyNTUsIDAuMjUpO3N0cm9rZS13aWR0aDoxcHg7fSNnZU1lcm1haWRPdXRwdXQtMTcyNjE2MTQxMDEyOCAuY2x1c3RlciB0ZXh0e2ZpbGw6I0Y5RkZGRTt9I2dlTWVybWFpZE91dHB1dC0xNzI2MTYxNDEwMTI4IC5jbHVzdGVyIHNwYW57Y29sb3I6I0Y5RkZGRTt9I2dlTWVybWFpZE91dHB1dC0xNzI2MTYxNDEwMTI4IGRpdi5tZXJtYWlkVG9vbHRpcHtwb3NpdGlvbjphYnNvbHV0ZTt0ZXh0LWFsaWduOmNlbnRlcjttYXgtd2lkdGg6MjAwcHg7cGFkZGluZzoycHg7Zm9udC1mYW1pbHk6InRyZWJ1Y2hldCBtcyIsdmVyZGFuYSxhcmlhbCxzYW5zLXNlcmlmO2ZvbnQtc2l6ZToxMnB4O2JhY2tncm91bmQ6aHNsKDIwLCAxLjU4NzMwMTU4NzMlLCAxMi4zNTI5NDExNzY1JSk7Ym9yZGVyOjFweCBzb2xpZCByZ2JhKDI1NSwgMjU1LCAyNTUsIDAuMjUpO2JvcmRlci1yYWRpdXM6MnB4O3BvaW50ZXItZXZlbnRzOm5vbmU7ei1pbmRleDoxMDA7fSNnZU1lcm1haWRPdXRwdXQtMTcyNjE2MTQxMDEyOCA6cm9vdHstLW1lcm1haWQtZm9udC1mYW1pbHk6InRyZWJ1Y2hldCBtcyIsdmVyZGFuYSxhcmlhbCxzYW5zLXNlcmlmO308L3N0eWxlPjxnIHRyYW5zZm9ybT0idHJhbnNsYXRlKDAsIDApIj48ZyBjbGFzcz0ib3V0cHV0Ij48ZyBjbGFzcz0iY2x1c3RlcnMiPjwvZz48ZyBjbGFzcz0iZWRnZVBhdGhzIj48ZyBzdHlsZT0ib3BhY2l0eTogMTsiIGlkPSJMLUEtQiIgY2xhc3M9ImVkZ2VQYXRoIExTLUEgTEUtQiI+PHBhdGggc3R5bGU9ImZpbGw6bm9uZSIgbWFya2VyLWVuZD0idXJsKCNhcnJvd2hlYWQxMzcpIiBkPSJNMzY2LjI2NTYyNSw0N0wzNjYuMjY1NjI1LDUxLjE2NjY2NjY2NjY2NjY2NEMzNjYuMjY1NjI1LDU1LjMzMzMzMzMzMzMzMzMzNiwzNjYuMjY1NjI1LDYzLjY2NjY2NjY2NjY2NjY2NCwzNjYuMjY1NjI1LDcyQzM2Ni4yNjU2MjUsODAuMzMzMzMzMzMzMzMzMzMsMzY2LjI2NTYyNSw4OC42NjY2NjY2NjY2NjY2NywzNjYuMjY1NjI1LDkyLjgzMzMzMzMzMzMzMzMzTDM2Ni4yNjU2MjUsOTciIGNsYXNzPSJwYXRoIj48L3BhdGg+PGRlZnM+PG1hcmtlciBvcmllbnQ9ImF1dG8iIG1hcmtlckhlaWdodD0iNiIgbWFya2VyV2lkdGg9IjgiIG1hcmtlclVuaXRzPSJzdHJva2VXaWR0aCIgcmVmWT0iNSIgcmVmWD0iOSIgdmlld0JveD0iMCAwIDEwIDEwIiBpZD0iYXJyb3doZWFkMTM3Ij48cGF0aCBzdHlsZT0ic3Ryb2tlLXdpZHRoOiAxOyBzdHJva2UtZGFzaGFycmF5OiAxLCAwOyIgY2xhc3M9ImFycm93aGVhZFBhdGgiIGQ9Ik0gMCAwIEwgMTAgNSBMIDAgMTAgeiI+PC9wYXRoPjwvbWFya2VyPjwvZGVmcz48L2c+PGcgc3R5bGU9Im9wYWNpdHk6IDE7IiBpZD0iTC1CLUMiIGNsYXNzPSJlZGdlUGF0aCBMUy1CIExFLUMiPjxwYXRoIHN0eWxlPSJmaWxsOm5vbmUiIG1hcmtlci1lbmQ9InVybCgjYXJyb3doZWFkMTM4KSIgZD0iTTM2Ni4yNjU2MjUsMTM2TDM2Ni4yNjU2MjUsMTQwLjE2NjY2NjY2NjY2NjY2QzM2Ni4yNjU2MjUsMTQ0LjMzMzMzMzMzMzMzMzM0LDM2Ni4yNjU2MjUsMTUyLjY2NjY2NjY2NjY2NjY2LDM2Ni4yNjU2MjUsMTYxQzM2Ni4yNjU2MjUsMTY5LjMzMzMzMzMzMzMzMzM0LDM2Ni4yNjU2MjUsMTc3LjY2NjY2NjY2NjY2NjY2LDM2Ni4yNjU2MjUsMTgxLjgzMzMzMzMzMzMzMzM0TDM2Ni4yNjU2MjUsMTg2IiBjbGFzcz0icGF0aCI+PC9wYXRoPjxkZWZzPjxtYXJrZXIgb3JpZW50PSJhdXRvIiBtYXJrZXJIZWlnaHQ9IjYiIG1hcmtlcldpZHRoPSI4IiBtYXJrZXJVbml0cz0ic3Ryb2tlV2lkdGgiIHJlZlk9IjUiIHJlZlg9IjkiIHZpZXdCb3g9IjAgMCAxMCAxMCIgaWQ9ImFycm93aGVhZDEzOCI+PHBhdGggc3R5bGU9InN0cm9rZS13aWR0aDogMTsgc3Ryb2tlLWRhc2hhcnJheTogMSwgMDsiIGNsYXNzPSJhcnJvd2hlYWRQYXRoIiBkPSJNIDAgMCBMIDEwIDUgTCAwIDEwIHoiPjwvcGF0aD48L21hcmtlcj48L2RlZnM+PC9nPjxnIHN0eWxlPSJvcGFjaXR5OiAxOyIgaWQ9IkwtQy1EIiBjbGFzcz0iZWRnZVBhdGggTFMtQyBMRS1EIj48cGF0aCBzdHlsZT0iZmlsbDpub25lIiBtYXJrZXItZW5kPSJ1cmwoI2Fycm93aGVhZDEzOSkiIGQ9Ik0zNjYuMjY1NjI1LDIyNUwzNjYuMjY1NjI1LDIyOS4xNjY2NjY2NjY2NjY2NkMzNjYuMjY1NjI1LDIzMy4zMzMzMzMzMzMzMzMzNCwzNjYuMjY1NjI1LDI0MS42NjY2NjY2NjY2NjY2NiwzNjYuMjY1NjI1LDI1MEMzNjYuMjY1NjI1LDI1OC4zMzMzMzMzMzMzMzMzLDM2Ni4yNjU2MjUsMjY2LjY2NjY2NjY2NjY2NjcsMzY2LjI2NTYyNSwyNzAuODMzMzMzMzMzMzMzM0wzNjYuMjY1NjI1LDI3NSIgY2xhc3M9InBhdGgiPjwvcGF0aD48ZGVmcz48bWFya2VyIG9yaWVudD0iYXV0byIgbWFya2VySGVpZ2h0PSI2IiBtYXJrZXJXaWR0aD0iOCIgbWFya2VyVW5pdHM9InN0cm9rZVdpZHRoIiByZWZZPSI1IiByZWZYPSI5IiB2aWV3Qm94PSIwIDAgMTAgMTAiIGlkPSJhcnJvd2hlYWQxMzkiPjxwYXRoIHN0eWxlPSJzdHJva2Utd2lkdGg6IDE7IHN0cm9rZS1kYXNoYXJyYXk6IDEsIDA7IiBjbGFzcz0iYXJyb3doZWFkUGF0aCIgZD0iTSAwIDAgTCAxMCA1IEwgMCAxMCB6Ij48L3BhdGg+PC9tYXJrZXI+PC9kZWZzPjwvZz48ZyBzdHlsZT0ib3BhY2l0eTogMTsiIGlkPSJMLUQtRSIgY2xhc3M9ImVkZ2VQYXRoIExTLUQgTEUtRSI+PHBhdGggc3R5bGU9ImZpbGw6bm9uZSIgbWFya2VyLWVuZD0idXJsKCNhcnJvd2hlYWQxNDApIiBkPSJNMzY2LjI2NTYyNSwzMTRMMzY2LjI2NTYyNSwzMTguMTY2NjY2NjY2NjY2N0MzNjYuMjY1NjI1LDMyMi4zMzMzMzMzMzMzMzMzLDM2Ni4yNjU2MjUsMzMwLjY2NjY2NjY2NjY2NjcsMzY2LjI2NTYyNSwzMzlDMzY2LjI2NTYyNSwzNDcuMzMzMzMzMzMzMzMzMywzNjYuMjY1NjI1LDM1NS42NjY2NjY2NjY2NjY3LDM2Ni4yNjU2MjUsMzU5LjgzMzMzMzMzMzMzMzNMMzY2LjI2NTYyNSwzNjQiIGNsYXNzPSJwYXRoIj48L3BhdGg+PGRlZnM+PG1hcmtlciBvcmllbnQ9ImF1dG8iIG1hcmtlckhlaWdodD0iNiIgbWFya2VyV2lkdGg9IjgiIG1hcmtlclVuaXRzPSJzdHJva2VXaWR0aCIgcmVmWT0iNSIgcmVmWD0iOSIgdmlld0JveD0iMCAwIDEwIDEwIiBpZD0iYXJyb3doZWFkMTQwIj48cGF0aCBzdHlsZT0ic3Ryb2tlLXdpZHRoOiAxOyBzdHJva2UtZGFzaGFycmF5OiAxLCAwOyIgY2xhc3M9ImFycm93aGVhZFBhdGgiIGQ9Ik0gMCAwIEwgMTAgNSBMIDAgMTAgeiI+PC9wYXRoPjwvbWFya2VyPjwvZGVmcz48L2c+PGcgc3R5bGU9Im9wYWNpdHk6IDE7IiBpZD0iTC1FLUYiIGNsYXNzPSJlZGdlUGF0aCBMUy1FIExFLUYiPjxwYXRoIHN0eWxlPSJmaWxsOm5vbmUiIG1hcmtlci1lbmQ9InVybCgjYXJyb3doZWFkMTQxKSIgZD0iTTMwMi4zODkwODg4MzQyNjk2Nyw0MDNMMjg4Ljc0MDI1NjMyMDIyNDcsNDA3LjE2NjY2NjY2NjY2NjdDMjc1LjA5MTQyMzgwNjE3OTc2LDQxMS4zMzMzMzMzMzMzMzMzLDI0Ny43OTM3NTg3NzgwODk4OCw0MTkuNjY2NjY2NjY2NjY2NywyMzQuMTQ0OTI2MjY0MDQ0OTMsNDI4QzIyMC40OTYwOTM3NSw0MzYuMzMzMzMzMzMzMzMzMywyMjAuNDk2MDkzNzUsNDQ0LjY2NjY2NjY2NjY2NjcsMjIwLjQ5NjA5Mzc1LDQ0OC44MzMzMzMzMzMzMzMzTDIyMC40OTYwOTM3NSw0NTMiIGNsYXNzPSJwYXRoIj48L3BhdGg+PGRlZnM+PG1hcmtlciBvcmllbnQ9ImF1dG8iIG1hcmtlckhlaWdodD0iNiIgbWFya2VyV2lkdGg9IjgiIG1hcmtlclVuaXRzPSJzdHJva2VXaWR0aCIgcmVmWT0iNSIgcmVmWD0iOSIgdmlld0JveD0iMCAwIDEwIDEwIiBpZD0iYXJyb3doZWFkMTQxIj48cGF0aCBzdHlsZT0ic3Ryb2tlLXdpZHRoOiAxOyBzdHJva2UtZGFzaGFycmF5OiAxLCAwOyIgY2xhc3M9ImFycm93aGVhZFBhdGgiIGQ9Ik0gMCAwIEwgMTAgNSBMIDAgMTAgeiI+PC9wYXRoPjwvbWFya2VyPjwvZGVmcz48L2c+PGcgc3R5bGU9Im9wYWNpdHk6IDE7IiBpZD0iTC1GLUciIGNsYXNzPSJlZGdlUGF0aCBMUy1GIExFLUciPjxwYXRoIHN0eWxlPSJmaWxsOm5vbmUiIG1hcmtlci1lbmQ9InVybCgjYXJyb3doZWFkMTQyKSIgZD0iTTIyMC40OTYwOTM3NSw0OTJMMjIwLjQ5NjA5Mzc1LDQ5Ni4xNjY2NjY2NjY2NjY3QzIyMC40OTYwOTM3NSw1MDAuMzMzMzMzMzMzMzMzMywyMjAuNDk2MDkzNzUsNTA4LjY2NjY2NjY2NjY2NjcsMjIwLjQ5NjA5Mzc1LDUxN0MyMjAuNDk2MDkzNzUsNTI1LjMzMzMzMzMzMzMzMzQsMjIwLjQ5NjA5Mzc1LDUzMy42NjY2NjY2NjY2NjY2LDIyMC40OTYwOTM3NSw1MzcuODMzMzMzMzMzMzMzNEwyMjAuNDk2MDkzNzUsNTQyIiBjbGFzcz0icGF0aCI+PC9wYXRoPjxkZWZzPjxtYXJrZXIgb3JpZW50PSJhdXRvIiBtYXJrZXJIZWlnaHQ9IjYiIG1hcmtlcldpZHRoPSI4IiBtYXJrZXJVbml0cz0ic3Ryb2tlV2lkdGgiIHJlZlk9IjUiIHJlZlg9IjkiIHZpZXdCb3g9IjAgMCAxMCAxMCIgaWQ9ImFycm93aGVhZDE0MiI+PHBhdGggc3R5bGU9InN0cm9rZS13aWR0aDogMTsgc3Ryb2tlLWRhc2hhcnJheTogMSwgMDsiIGNsYXNzPSJhcnJvd2hlYWRQYXRoIiBkPSJNIDAgMCBMIDEwIDUgTCAwIDEwIHoiPjwvcGF0aD48L21hcmtlcj48L2RlZnM+PC9nPjxnIHN0eWxlPSJvcGFjaXR5OiAxOyIgaWQ9IkwtRy1IIiBjbGFzcz0iZWRnZVBhdGggTFMtRyBMRS1IIj48cGF0aCBzdHlsZT0iZmlsbDpub25lIiBtYXJrZXItZW5kPSJ1cmwoI2Fycm93aGVhZDE0MykiIGQ9Ik0yMjAuNDk2MDkzNzUsNTgxTDIyMC40OTYwOTM3NSw1ODUuMTY2NjY2NjY2NjY2NkMyMjAuNDk2MDkzNzUsNTg5LjMzMzMzMzMzMzMzMzQsMjIwLjQ5NjA5Mzc1LDU5Ny42NjY2NjY2NjY2NjY2LDIyMC41Nzk0MjcwODMzMzMzNCw2MDYuMDgzMzMzNDYwNDg5OUMyMjAuNjYyNzYwNDE2NjY2NjYsNjE0LjUwMDAwMDI1NDMxMzEsMjIwLjgyOTQyNzA4MzMzMzM0LDYyMy4wMDAwMDA1MDg2MjYzLDIyMC45MTI3NjA0MTY2NjY2Niw2MjcuMjUwMDAwNjM1NzgyOEwyMjAuOTk2MDkzNzUsNjMxLjUwMDAwMDc2MjkzOTQiIGNsYXNzPSJwYXRoIj48L3BhdGg+PGRlZnM+PG1hcmtlciBvcmllbnQ9ImF1dG8iIG1hcmtlckhlaWdodD0iNiIgbWFya2VyV2lkdGg9IjgiIG1hcmtlclVuaXRzPSJzdHJva2VXaWR0aCIgcmVmWT0iNSIgcmVmWD0iOSIgdmlld0JveD0iMCAwIDEwIDEwIiBpZD0iYXJyb3doZWFkMTQzIj48cGF0aCBzdHlsZT0ic3Ryb2tlLXdpZHRoOiAxOyBzdHJva2UtZGFzaGFycmF5OiAxLCAwOyIgY2xhc3M9ImFycm93aGVhZFBhdGgiIGQ9Ik0gMCAwIEwgMTAgNSBMIDAgMTAgeiI+PC9wYXRoPjwvbWFya2VyPjwvZGVmcz48L2c+PGcgc3R5bGU9Im9wYWNpdHk6IDE7IiBpZD0iTC1ILUkiIGNsYXNzPSJlZGdlUGF0aCBMUy1IIExFLUkiPjxwYXRoIHN0eWxlPSJmaWxsOm5vbmUiIG1hcmtlci1lbmQ9InVybCgjYXJyb3doZWFkMTQ0KSIgZD0iTTIwNi4wODc5MTM4NTE4NjA3OCw3MzguNjA1MTAyMTE0ODAwNEwyMDMuMzQxNDkwNzA5ODgzOTcsNzQ2Ljc1NjQ2NTU1ODMxMzRDMjAwLjU5NTA2NzU2NzkwNzIsNzU0LjkwNzgyOTAwMTgyNjYsMTk1LjEwMjIyMTI4Mzk1MzU4LDc3MS4yMTA1NTU4ODg4NTI4LDE5Mi4zNTU3OTgxNDE5NzY4LDc4NS4xMTE5MTkzMzIzNjU4QzE4OS42MDkzNzUsNzk5LjAxMzI4Mjc3NTg3ODksMTg5LjYwOTM3NSw4MTAuNTEzMjgyNzc1ODc4OSwxODkuNjA5Mzc1LDgxNi4yNjMyODI3NzU4Nzg5TDE4OS42MDkzNzUsODIyLjAxMzI4Mjc3NTg3ODkiIGNsYXNzPSJwYXRoIj48L3BhdGg+PGRlZnM+PG1hcmtlciBvcmllbnQ9ImF1dG8iIG1hcmtlckhlaWdodD0iNiIgbWFya2VyV2lkdGg9IjgiIG1hcmtlclVuaXRzPSJzdHJva2VXaWR0aCIgcmVmWT0iNSIgcmVmWD0iOSIgdmlld0JveD0iMCAwIDEwIDEwIiBpZD0iYXJyb3doZWFkMTQ0Ij48cGF0aCBzdHlsZT0ic3Ryb2tlLXdpZHRoOiAxOyBzdHJva2UtZGFzaGFycmF5OiAxLCAwOyIgY2xhc3M9ImFycm93aGVhZFBhdGgiIGQ9Ik0gMCAwIEwgMTAgNSBMIDAgMTAgeiI+PC9wYXRoPjwvbWFya2VyPjwvZGVmcz48L2c+PGcgc3R5bGU9Im9wYWNpdHk6IDE7IiBpZD0iTC1ILUoiIGNsYXNzPSJlZGdlUGF0aCBMUy1IIExFLUoiPjxwYXRoIHN0eWxlPSJmaWxsOm5vbmUiIG1hcmtlci1lbmQ9InVybCgjYXJyb3doZWFkMTQ1KSIgZD0iTTI2MC41OTQ0NTM1MTY4MDcsNzEzLjkxNDkyMDcyMDI1MzFMMjgzLjM1NDEwMTg4OTAwNTgsNzI2LjE4MTMxNDM5NjE5MDhDMzA2LjExMzc1MDI2MTIwNDY0LDczOC40NDc3MDgwNzIxMjg0LDM1MS42MzMwNDcwMDU2MDIzLDc2Mi45ODA0OTU0MjQwMDM2LDM4OS45MTQ0NTEwMjAxNjIyMyw3ODAuOTk2ODg5MDk5OTQxM0M0MjguMTk1ODU1MDM0NzIyMjMsNzk5LjAxMzI4Mjc3NTg3ODksNDU5LjIzOTM2NjMxOTQ0NDUsODEwLjUxMzI4Mjc3NTg3ODksNDc0Ljc2MTEyMTk2MTgwNTYsODE2LjI2MzI4Mjc3NTg3ODlMNDkwLjI4Mjg3NzYwNDE2NjcsODIyLjAxMzI4Mjc3NTg3ODkiIGNsYXNzPSJwYXRoIj48L3BhdGg+PGRlZnM+PG1hcmtlciBvcmllbnQ9ImF1dG8iIG1hcmtlckhlaWdodD0iNiIgbWFya2VyV2lkdGg9IjgiIG1hcmtlclVuaXRzPSJzdHJva2VXaWR0aCIgcmVmWT0iNSIgcmVmWD0iOSIgdmlld0JveD0iMCAwIDEwIDEwIiBpZD0iYXJyb3doZWFkMTQ1Ij48cGF0aCBzdHlsZT0ic3Ryb2tlLXdpZHRoOiAxOyBzdHJva2UtZGFzaGFycmF5OiAxLCAwOyIgY2xhc3M9ImFycm93aGVhZFBhdGgiIGQ9Ik0gMCAwIEwgMTAgNSBMIDAgMTAgeiI+PC9wYXRoPjwvbWFya2VyPjwvZGVmcz48L2c+PGcgc3R5bGU9Im9wYWNpdHk6IDE7IiBpZD0iTC1KLUUiIGNsYXNzPSJlZGdlUGF0aCBMUy1KIExFLUUiPjxwYXRoIHN0eWxlPSJmaWxsOm5vbmUiIG1hcmtlci1lbmQ9InVybCgjYXJyb3doZWFkMTQ2KSIgZD0iTTU1MC44NDA5Mjg4MTk0NDQ1LDgyMi4wMTMyODI3NzU4Nzg5TDU1My4xNzYwMzQ0MzI4NzAzLDgxNi4yNjMyODI3NzU4Nzg5QzU1NS41MTExNDAwNDYyOTYzLDgxMC41MTMyODI3NzU4Nzg5LDU2MC4xODEzNTEyNzMxNDgyLDc5OS4wMTMyODI3NzU4Nzg5LDU2Mi41MTY0NTY4ODY1NzQsNzc3LjM0NTUwOTIxMTIyMjNDNTY0Ljg1MTU2MjUsNzU1LjY3NzczNTY0NjU2NTgsNTY0Ljg1MTU2MjUsNzIzLjg0MjE4ODUxNzI1MjYsNTY0Ljg1MTU2MjUsNjkzLjU4OTk3NDcyMTI3MjhDNTY0Ljg1MTU2MjUsNjYzLjMzNzc2MDkyNTI5Myw1NjQuODUxNTYyNSw2MzQuNjY4ODgwNDYyNjQ2NSw1NjQuODUxNTYyNSw2MTIuOTE3NzczNTY0NjU2NkM1NjQuODUxNTYyNSw1OTEuMTY2NjY2NjY2NjY2Niw1NjQuODUxNTYyNSw1NzYuMzMzMzMzMzMzMzMzNCw1NjQuODUxNTYyNSw1NjEuNUM1NjQuODUxNTYyNSw1NDYuNjY2NjY2NjY2NjY2Niw1NjQuODUxNTYyNSw1MzEuODMzMzMzMzMzMzMzNCw1NjQuODUxNTYyNSw1MTdDNTY0Ljg1MTU2MjUsNTAyLjE2NjY2NjY2NjY2NjcsNTY0Ljg1MTU2MjUsNDg3LjMzMzMzMzMzMzMzMzMsNTY0Ljg1MTU2MjUsNDcyLjVDNTY0Ljg1MTU2MjUsNDU3LjY2NjY2NjY2NjY2NjcsNTY0Ljg1MTU2MjUsNDQyLjgzMzMzMzMzMzMzMzMsNTQ2LjI1NzM3MzU5NTUwNTYsNDMxLjI1QzUyNy42NjMxODQ2OTEwMTEyLDQxOS42NjY2NjY2NjY2NjY3LDQ5MC40NzQ4MDY4ODIwMjI0NSw0MTEuMzMzMzMzMzMzMzMzMyw0NzEuODgwNjE3OTc3NTI4MDYsNDA3LjE2NjY2NjY2NjY2NjdMNDUzLjI4NjQyOTA3MzAzMzcsNDAzIiBjbGFzcz0icGF0aCI+PC9wYXRoPjxkZWZzPjxtYXJrZXIgb3JpZW50PSJhdXRvIiBtYXJrZXJIZWlnaHQ9IjYiIG1hcmtlcldpZHRoPSI4IiBtYXJrZXJVbml0cz0ic3Ryb2tlV2lkdGgiIHJlZlk9IjUiIHJlZlg9IjkiIHZpZXdCb3g9IjAgMCAxMCAxMCIgaWQ9ImFycm93aGVhZDE0NiI+PHBhdGggc3R5bGU9InN0cm9rZS13aWR0aDogMTsgc3Ryb2tlLWRhc2hhcnJheTogMSwgMDsiIGNsYXNzPSJhcnJvd2hlYWRQYXRoIiBkPSJNIDAgMCBMIDEwIDUgTCAwIDEwIHoiPjwvcGF0aD48L21hcmtlcj48L2RlZnM+PC9nPjxnIHN0eWxlPSJvcGFjaXR5OiAxOyIgaWQ9IkwtSS1LIiBjbGFzcz0iZWRnZVBhdGggTFMtSSBMRS1LIj48cGF0aCBzdHlsZT0iZmlsbDpub25lIiBtYXJrZXItZW5kPSJ1cmwoI2Fycm93aGVhZDE0NykiIGQ9Ik0xODkuNjA5Mzc1LDg2MS4wMTMyODI3NzU4Nzg5TDE4OS42MDkzNzUsODY1LjE3OTk0OTQ0MjU0NTVDMTg5LjYwOTM3NSw4NjkuMzQ2NjE2MTA5MjEyMywxODkuNjA5Mzc1LDg3Ny42Nzk5NDk0NDI1NDU1LDE4OS42MDkzNzUsODg2LjAxMzI4Mjc3NTg3ODlDMTg5LjYwOTM3NSw4OTQuMzQ2NjE2MTA5MjEyMywxODkuNjA5Mzc1LDkwMi42Nzk5NDk0NDI1NDU1LDE4OS42MDkzNzUsOTA2Ljg0NjYxNjEwOTIxMjNMMTg5LjYwOTM3NSw5MTEuMDEzMjgyNzc1ODc4OSIgY2xhc3M9InBhdGgiPjwvcGF0aD48ZGVmcz48bWFya2VyIG9yaWVudD0iYXV0byIgbWFya2VySGVpZ2h0PSI2IiBtYXJrZXJXaWR0aD0iOCIgbWFya2VyVW5pdHM9InN0cm9rZVdpZHRoIiByZWZZPSI1IiByZWZYPSI5IiB2aWV3Qm94PSIwIDAgMTAgMTAiIGlkPSJhcnJvd2hlYWQxNDciPjxwYXRoIHN0eWxlPSJzdHJva2Utd2lkdGg6IDE7IHN0cm9rZS1kYXNoYXJyYXk6IDEsIDA7IiBjbGFzcz0iYXJyb3doZWFkUGF0aCIgZD0iTSAwIDAgTCAxMCA1IEwgMCAxMCB6Ij48L3BhdGg+PC9tYXJrZXI+PC9kZWZzPjwvZz48ZyBzdHlsZT0ib3BhY2l0eTogMTsiIGlkPSJMLUstTCIgY2xhc3M9ImVkZ2VQYXRoIExTLUsgTEUtTCI+PHBhdGggc3R5bGU9ImZpbGw6bm9uZSIgbWFya2VyLWVuZD0idXJsKCNhcnJvd2hlYWQxNDgpIiBkPSJNMTg5LjYwOTM3NSw5NTAuMDEzMjgyNzc1ODc4OUwxODkuNjA5Mzc1LDk1NC4xNzk5NDk0NDI1NDU1QzE4OS42MDkzNzUsOTU4LjM0NjYxNjEwOTIxMjMsMTg5LjYwOTM3NSw5NjYuNjc5OTQ5NDQyNTQ1NSwxODkuNjA5Mzc1LDk3NS4wMTMyODI3NzU4Nzg5QzE4OS42MDkzNzUsOTgzLjM0NjYxNjEwOTIxMjMsMTg5LjYwOTM3NSw5OTEuNjc5OTQ5NDQyNTQ1NSwxODkuNjA5Mzc1LDk5NS44NDY2MTYxMDkyMTIzTDE4OS42MDkzNzUsMTAwMC4wMTMyODI3NzU4Nzg5IiBjbGFzcz0icGF0aCI+PC9wYXRoPjxkZWZzPjxtYXJrZXIgb3JpZW50PSJhdXRvIiBtYXJrZXJIZWlnaHQ9IjYiIG1hcmtlcldpZHRoPSI4IiBtYXJrZXJVbml0cz0ic3Ryb2tlV2lkdGgiIHJlZlk9IjUiIHJlZlg9IjkiIHZpZXdCb3g9IjAgMCAxMCAxMCIgaWQ9ImFycm93aGVhZDE0OCI+PHBhdGggc3R5bGU9InN0cm9rZS13aWR0aDogMTsgc3Ryb2tlLWRhc2hhcnJheTogMSwgMDsiIGNsYXNzPSJhcnJvd2hlYWRQYXRoIiBkPSJNIDAgMCBMIDEwIDUgTCAwIDEwIHoiPjwvcGF0aD48L21hcmtlcj48L2RlZnM+PC9nPjwvZz48ZyBjbGFzcz0iZWRnZUxhYmVscyI+PGcgc3R5bGU9Im9wYWNpdHk6IDE7IiB0cmFuc2Zvcm09IiIgY2xhc3M9ImVkZ2VMYWJlbCI+PGcgY2xhc3M9ImxhYmVsIiB0cmFuc2Zvcm09InRyYW5zbGF0ZSgwLDApIj48cmVjdCBoZWlnaHQ9IjAiIHdpZHRoPSIwIiByeT0iMCIgcng9IjAiPjwvcmVjdD48dGV4dD48dHNwYW4geD0iMSIgZHk9IjFlbSIgeG1sOnNwYWNlPSJwcmVzZXJ2ZSI+PC90c3Bhbj48L3RleHQ+PC9nPjwvZz48ZyBzdHlsZT0ib3BhY2l0eTogMTsiIHRyYW5zZm9ybT0iIiBjbGFzcz0iZWRnZUxhYmVsIj48ZyBjbGFzcz0ibGFiZWwiIHRyYW5zZm9ybT0idHJhbnNsYXRlKDAsMCkiPjxyZWN0IGhlaWdodD0iMCIgd2lkdGg9IjAiIHJ5PSIwIiByeD0iMCI+PC9yZWN0Pjx0ZXh0Pjx0c3BhbiB4PSIxIiBkeT0iMWVtIiB4bWw6c3BhY2U9InByZXNlcnZlIj48L3RzcGFuPjwvdGV4dD48L2c+PC9nPjxnIHN0eWxlPSJvcGFjaXR5OiAxOyIgdHJhbnNmb3JtPSIiIGNsYXNzPSJlZGdlTGFiZWwiPjxnIGNsYXNzPSJsYWJlbCIgdHJhbnNmb3JtPSJ0cmFuc2xhdGUoMCwwKSI+PHJlY3QgaGVpZ2h0PSIwIiB3aWR0aD0iMCIgcnk9IjAiIHJ4PSIwIj48L3JlY3Q+PHRleHQ+PHRzcGFuIHg9IjEiIGR5PSIxZW0iIHhtbDpzcGFjZT0icHJlc2VydmUiPjwvdHNwYW4+PC90ZXh0PjwvZz48L2c+PGcgc3R5bGU9Im9wYWNpdHk6IDE7IiB0cmFuc2Zvcm09IiIgY2xhc3M9ImVkZ2VMYWJlbCI+PGcgY2xhc3M9ImxhYmVsIiB0cmFuc2Zvcm09InRyYW5zbGF0ZSgwLDApIj48cmVjdCBoZWlnaHQ9IjAiIHdpZHRoPSIwIiByeT0iMCIgcng9IjAiPjwvcmVjdD48dGV4dD48dHNwYW4geD0iMSIgZHk9IjFlbSIgeG1sOnNwYWNlPSJwcmVzZXJ2ZSI+PC90c3Bhbj48L3RleHQ+PC9nPjwvZz48ZyBzdHlsZT0ib3BhY2l0eTogMTsiIHRyYW5zZm9ybT0iIiBjbGFzcz0iZWRnZUxhYmVsIj48ZyBjbGFzcz0ibGFiZWwiIHRyYW5zZm9ybT0idHJhbnNsYXRlKDAsMCkiPjxyZWN0IGhlaWdodD0iMCIgd2lkdGg9IjAiIHJ5PSIwIiByeD0iMCI+PC9yZWN0Pjx0ZXh0Pjx0c3BhbiB4PSIxIiBkeT0iMWVtIiB4bWw6c3BhY2U9InByZXNlcnZlIj48L3RzcGFuPjwvdGV4dD48L2c+PC9nPjxnIHN0eWxlPSJvcGFjaXR5OiAxOyIgdHJhbnNmb3JtPSIiIGNsYXNzPSJlZGdlTGFiZWwiPjxnIGNsYXNzPSJsYWJlbCIgdHJhbnNmb3JtPSJ0cmFuc2xhdGUoMCwwKSI+PHJlY3QgaGVpZ2h0PSIwIiB3aWR0aD0iMCIgcnk9IjAiIHJ4PSIwIj48L3JlY3Q+PHRleHQ+PHRzcGFuIHg9IjEiIGR5PSIxZW0iIHhtbDpzcGFjZT0icHJlc2VydmUiPjwvdHNwYW4+PC90ZXh0PjwvZz48L2c+PGcgc3R5bGU9Im9wYWNpdHk6IDE7IiB0cmFuc2Zvcm09IiIgY2xhc3M9ImVkZ2VMYWJlbCI+PGcgY2xhc3M9ImxhYmVsIiB0cmFuc2Zvcm09InRyYW5zbGF0ZSgwLDApIj48cmVjdCBoZWlnaHQ9IjAiIHdpZHRoPSIwIiByeT0iMCIgcng9IjAiPjwvcmVjdD48dGV4dD48dHNwYW4geD0iMSIgZHk9IjFlbSIgeG1sOnNwYWNlPSJwcmVzZXJ2ZSI+PC90c3Bhbj48L3RleHQ+PC9nPjwvZz48ZyBzdHlsZT0ib3BhY2l0eTogMTsiIHRyYW5zZm9ybT0idHJhbnNsYXRlKDE4OS42MDkzNzUsNzg3LjUxMzI4Mjc3NTg3ODkpIiBjbGFzcz0iZWRnZUxhYmVsIj48ZyBjbGFzcz0ibGFiZWwiIHRyYW5zZm9ybT0idHJhbnNsYXRlKC0xNy45MTQwNjI1LC05LjUpIj48cmVjdCBoZWlnaHQ9IjE5IiB3aWR0aD0iMzUuODI4MTI1IiByeT0iMCIgcng9IjAiPjwvcmVjdD48dGV4dD48dHNwYW4geD0iMSIgZHk9IjFlbSIgeG1sOnNwYWNlPSJwcmVzZXJ2ZSI+VmFsaWQ8L3RzcGFuPjwvdGV4dD48L2c+PC9nPjxnIHN0eWxlPSJvcGFjaXR5OiAxOyIgdHJhbnNmb3JtPSJ0cmFuc2xhdGUoMzk3LjE1MjM0Mzc1LDc4Ny41MTMyODI3NzU4Nzg5KSIgY2xhc3M9ImVkZ2VMYWJlbCI+PGcgY2xhc3M9ImxhYmVsIiB0cmFuc2Zvcm09InRyYW5zbGF0ZSgtMjMuODU5Mzc1LC05LjUpIj48cmVjdCBoZWlnaHQ9IjE5IiB3aWR0aD0iNDcuNzE4NzUiIHJ5PSIwIiByeD0iMCI+PC9yZWN0Pjx0ZXh0Pjx0c3BhbiB4PSIxIiBkeT0iMWVtIiB4bWw6c3BhY2U9InByZXNlcnZlIj5JbnZhbGlkPC90c3Bhbj48L3RleHQ+PC9nPjwvZz48ZyBzdHlsZT0ib3BhY2l0eTogMTsiIHRyYW5zZm9ybT0iIiBjbGFzcz0iZWRnZUxhYmVsIj48ZyBjbGFzcz0ibGFiZWwiIHRyYW5zZm9ybT0idHJhbnNsYXRlKDAsMCkiPjxyZWN0IGhlaWdodD0iMCIgd2lkdGg9IjAiIHJ5PSIwIiByeD0iMCI+PC9yZWN0Pjx0ZXh0Pjx0c3BhbiB4PSIxIiBkeT0iMWVtIiB4bWw6c3BhY2U9InByZXNlcnZlIj48L3RzcGFuPjwvdGV4dD48L2c+PC9nPjxnIHN0eWxlPSJvcGFjaXR5OiAxOyIgdHJhbnNmb3JtPSIiIGNsYXNzPSJlZGdlTGFiZWwiPjxnIGNsYXNzPSJsYWJlbCIgdHJhbnNmb3JtPSJ0cmFuc2xhdGUoMCwwKSI+PHJlY3QgaGVpZ2h0PSIwIiB3aWR0aD0iMCIgcnk9IjAiIHJ4PSIwIj48L3JlY3Q+PHRleHQ+PHRzcGFuIHg9IjEiIGR5PSIxZW0iIHhtbDpzcGFjZT0icHJlc2VydmUiPjwvdHNwYW4+PC90ZXh0PjwvZz48L2c+PGcgc3R5bGU9Im9wYWNpdHk6IDE7IiB0cmFuc2Zvcm09IiIgY2xhc3M9ImVkZ2VMYWJlbCI+PGcgY2xhc3M9ImxhYmVsIiB0cmFuc2Zvcm09InRyYW5zbGF0ZSgwLDApIj48cmVjdCBoZWlnaHQ9IjAiIHdpZHRoPSIwIiByeT0iMCIgcng9IjAiPjwvcmVjdD48dGV4dD48dHNwYW4geD0iMSIgZHk9IjFlbSIgeG1sOnNwYWNlPSJwcmVzZXJ2ZSI+PC90c3Bhbj48L3RleHQ+PC9nPjwvZz48L2c+PGcgY2xhc3M9Im5vZGVzIj48ZyBzdHlsZT0ib3BhY2l0eTogMTsiIHRyYW5zZm9ybT0idHJhbnNsYXRlKDM2Ni4yNjU2MjUsMjcuNSkiIGlkPSJmbG93Y2hhcnQtQS03MiIgY2xhc3M9Im5vZGUgZGVmYXVsdCI+PHJlY3QgY2xhc3M9ImxhYmVsLWNvbnRhaW5lciIgaGVpZ2h0PSIzOSIgd2lkdGg9IjIyNC44OTg0Mzc1IiB5PSItMTkuNSIgeD0iLTExMi40NDkyMTg3NSIgcnk9IjAiIHJ4PSIwIj48L3JlY3Q+PGcgdHJhbnNmb3JtPSJ0cmFuc2xhdGUoMCwwKSIgY2xhc3M9ImxhYmVsIj48ZyB0cmFuc2Zvcm09InRyYW5zbGF0ZSgtMTAyLjQ0OTIxODc1LC05LjUpIj48dGV4dCBzdHlsZT0iIj48dHNwYW4geD0iMSIgZHk9IjFlbSIgeG1sOnNwYWNlPSJwcmVzZXJ2ZSI+RW1wbG95ZWUgVXBsb2FkcyBFeGNlbCBGaWxlPC90c3Bhbj48L3RleHQ+PC9nPjwvZz48L2c+PGcgc3R5bGU9Im9wYWNpdHk6IDE7IiB0cmFuc2Zvcm09InRyYW5zbGF0ZSgzNjYuMjY1NjI1LDExNi41KSIgaWQ9ImZsb3djaGFydC1CLTczIiBjbGFzcz0ibm9kZSBkZWZhdWx0Ij48cmVjdCBjbGFzcz0ibGFiZWwtY29udGFpbmVyIiBoZWlnaHQ9IjM5IiB3aWR0aD0iMzAwLjUzOTA2MjUiIHk9Ii0xOS41IiB4PSItMTUwLjI2OTUzMTI1IiByeT0iMCIgcng9IjAiPjwvcmVjdD48ZyB0cmFuc2Zvcm09InRyYW5zbGF0ZSgwLDApIiBjbGFzcz0ibGFiZWwiPjxnIHRyYW5zZm9ybT0idHJhbnNsYXRlKC0xNDAuMjY5NTMxMjUsLTkuNSkiPjx0ZXh0IHN0eWxlPSIiPjx0c3BhbiB4PSIxIiBkeT0iMWVtIiB4bWw6c3BhY2U9InByZXNlcnZlIj5BSSBQcm9jZXNzZXMgRmlsZSBhbmQgR2VuZXJhdGVzIFJlcG9ydDwvdHNwYW4+PC90ZXh0PjwvZz48L2c+PC9nPjxnIHN0eWxlPSJvcGFjaXR5OiAxOyIgdHJhbnNmb3JtPSJ0cmFuc2xhdGUoMzY2LjI2NTYyNSwyMDUuNSkiIGlkPSJmbG93Y2hhcnQtQy03NSIgY2xhc3M9Im5vZGUgZGVmYXVsdCI+PHJlY3QgY2xhc3M9ImxhYmVsLWNvbnRhaW5lciIgaGVpZ2h0PSIzOSIgd2lkdGg9IjMxMS45MjE4NzUiIHk9Ii0xOS41IiB4PSItMTU1Ljk2MDkzNzUiIHJ5PSIwIiByeD0iMCI+PC9yZWN0PjxnIHRyYW5zZm9ybT0idHJhbnNsYXRlKDAsMCkiIGNsYXNzPSJsYWJlbCI+PGcgdHJhbnNmb3JtPSJ0cmFuc2xhdGUoLTE0NS45NjA5Mzc1LC05LjUpIj48dGV4dCBzdHlsZT0iIj48dHNwYW4geD0iMSIgZHk9IjFlbSIgeG1sOnNwYWNlPSJwcmVzZXJ2ZSI+RW1wbG95ZWUgUmV2aWV3cyBEb2N1bWVudCBhbmQgUmVwb3J0PC90c3Bhbj48L3RleHQ+PC9nPjwvZz48L2c+PGcgc3R5bGU9Im9wYWNpdHk6IDE7IiB0cmFuc2Zvcm09InRyYW5zbGF0ZSgzNjYuMjY1NjI1LDI5NC41KSIgaWQ9ImZsb3djaGFydC1ELTc3IiBjbGFzcz0ibm9kZSBkZWZhdWx0Ij48cmVjdCBjbGFzcz0ibGFiZWwtY29udGFpbmVyIiBoZWlnaHQ9IjM5IiB3aWR0aD0iMjM2LjA5Mzc1IiB5PSItMTkuNSIgeD0iLTExOC4wNDY4NzUiIHJ5PSIwIiByeD0iMCI+PC9yZWN0PjxnIHRyYW5zZm9ybT0idHJhbnNsYXRlKDAsMCkiIGNsYXNzPSJsYWJlbCI+PGcgdHJhbnNmb3JtPSJ0cmFuc2xhdGUoLTEwOC4wNDY4NzUsLTkuNSkiPjx0ZXh0IHN0eWxlPSIiPjx0c3BhbiB4PSIxIiBkeT0iMWVtIiB4bWw6c3BhY2U9InByZXNlcnZlIj5FbXBsb3llZSBBcHByb3ZlcyBEb2N1bWVudDwvdHNwYW4+PC90ZXh0PjwvZz48L2c+PC9nPjxnIHN0eWxlPSJvcGFjaXR5OiAxOyIgdHJhbnNmb3JtPSJ0cmFuc2xhdGUoMzY2LjI2NTYyNSwzODMuNSkiIGlkPSJmbG93Y2hhcnQtRS03OSIgY2xhc3M9Im5vZGUgZGVmYXVsdCI+PHJlY3QgY2xhc3M9ImxhYmVsLWNvbnRhaW5lciIgaGVpZ2h0PSIzOSIgd2lkdGg9IjMzNy42NzE4NzUiIHk9Ii0xOS41IiB4PSItMTY4LjgzNTkzNzUiIHJ5PSIwIiByeD0iMCI+PC9yZWN0PjxnIHRyYW5zZm9ybT0idHJhbnNsYXRlKDAsMCkiIGNsYXNzPSJsYWJlbCI+PGcgdHJhbnNmb3JtPSJ0cmFuc2xhdGUoLTE1OC44MzU5Mzc1LC05LjUpIj48dGV4dCBzdHlsZT0iIj48dHNwYW4geD0iMSIgZHk9IjFlbSIgeG1sOnNwYWNlPSJwcmVzZXJ2ZSI+R2VuZXJhdGUgYW5kIFNlbmQgT1RQIHRvIEVtcGxveWVlJ3MgRW1haWw8L3RzcGFuPjwvdGV4dD48L2c+PC9nPjwvZz48ZyBzdHlsZT0ib3BhY2l0eTogMTsiIHRyYW5zZm9ybT0idHJhbnNsYXRlKDIyMC40OTYwOTM3NSw0NzIuNSkiIGlkPSJmbG93Y2hhcnQtRi04MSIgY2xhc3M9Im5vZGUgZGVmYXVsdCI+PHJlY3QgY2xhc3M9ImxhYmVsLWNvbnRhaW5lciIgaGVpZ2h0PSIzOSIgd2lkdGg9IjE4OS43NjU2MjUiIHk9Ii0xOS41IiB4PSItOTQuODgyODEyNSIgcnk9IjAiIHJ4PSIwIj48L3JlY3Q+PGcgdHJhbnNmb3JtPSJ0cmFuc2xhdGUoMCwwKSIgY2xhc3M9ImxhYmVsIj48ZyB0cmFuc2Zvcm09InRyYW5zbGF0ZSgtODQuODgyODEyNSwtOS41KSI+PHRleHQgc3R5bGU9IiI+PHRzcGFuIHg9IjEiIGR5PSIxZW0iIHhtbDpzcGFjZT0icHJlc2VydmUiPkVtcGxveWVlIFJlY2VpdmVzIE9UUDwvdHNwYW4+PC90ZXh0PjwvZz48L2c+PC9nPjxnIHN0eWxlPSJvcGFjaXR5OiAxOyIgdHJhbnNmb3JtPSJ0cmFuc2xhdGUoMjIwLjQ5NjA5Mzc1LDU2MS41KSIgaWQ9ImZsb3djaGFydC1HLTgzIiBjbGFzcz0ibm9kZSBkZWZhdWx0Ij48cmVjdCBjbGFzcz0ibGFiZWwtY29udGFpbmVyIiBoZWlnaHQ9IjM5IiB3aWR0aD0iMjYxLjEyNSIgeT0iLTE5LjUiIHg9Ii0xMzAuNTYyNSIgcnk9IjAiIHJ4PSIwIj48L3JlY3Q+PGcgdHJhbnNmb3JtPSJ0cmFuc2xhdGUoMCwwKSIgY2xhc3M9ImxhYmVsIj48ZyB0cmFuc2Zvcm09InRyYW5zbGF0ZSgtMTIwLjU2MjUsLTkuNSkiPjx0ZXh0IHN0eWxlPSIiPjx0c3BhbiB4PSIxIiBkeT0iMWVtIiB4bWw6c3BhY2U9InByZXNlcnZlIj5FbXBsb3llZSBFbnRlcnMgT1RQIGludG8gU3lzdGVtPC90c3Bhbj48L3RleHQ+PC9nPjwvZz48L2c+PGcgc3R5bGU9Im9wYWNpdHk6IDE7IiB0cmFuc2Zvcm09InRyYW5zbGF0ZSgyMjAuNDk2MDkzNzUsNjkyLjAwNjY0MTM4NzkzOTUpIiBpZD0iZmxvd2NoYXJ0LUgtODUiIGNsYXNzPSJub2RlIGRlZmF1bHQiPjxwb2x5Z29uIGNsYXNzPSJsYWJlbC1jb250YWluZXIiIHRyYW5zZm9ybT0idHJhbnNsYXRlKC02MS4wMDY2NDA2MjUsNjEuMDA2NjQwNjI1KSIgcG9pbnRzPSI2MS4wMDY2NDA2MjUsMCAxMjIuMDEzMjgxMjUsLTYxLjAwNjY0MDYyNSA2MS4wMDY2NDA2MjUsLTEyMi4wMTMyODEyNSAwLC02MS4wMDY2NDA2MjUiPjwvcG9seWdvbj48ZyB0cmFuc2Zvcm09InRyYW5zbGF0ZSgwLDApIiBjbGFzcz0ibGFiZWwiPjxnIHRyYW5zZm9ybT0idHJhbnNsYXRlKC0zOC4yODUxNTYyNSwtOS41KSI+PHRleHQgc3R5bGU9IiI+PHRzcGFuIHg9IjEiIGR5PSIxZW0iIHhtbDpzcGFjZT0icHJlc2VydmUiPlZlcmlmeSBPVFA8L3RzcGFuPjwvdGV4dD48L2c+PC9nPjwvZz48ZyBzdHlsZT0ib3BhY2l0eTogMTsiIHRyYW5zZm9ybT0idHJhbnNsYXRlKDE4OS42MDkzNzUsODQxLjUxMzI4Mjc3NTg3ODkpIiBpZD0iZmxvd2NoYXJ0LUktODciIGNsYXNzPSJub2RlIGRlZmF1bHQiPjxyZWN0IGNsYXNzPSJsYWJlbC1jb250YWluZXIiIGhlaWdodD0iMzkiIHdpZHRoPSIzNjMuMjE4NzUiIHk9Ii0xOS41IiB4PSItMTgxLjYwOTM3NSIgcnk9IjAiIHJ4PSIwIj48L3JlY3Q+PGcgdHJhbnNmb3JtPSJ0cmFuc2xhdGUoMCwwKSIgY2xhc3M9ImxhYmVsIj48ZyB0cmFuc2Zvcm09InRyYW5zbGF0ZSgtMTcxLjYwOTM3NSwtOS41KSI+PHRleHQgc3R5bGU9IiI+PHRzcGFuIHg9IjEiIGR5PSIxZW0iIHhtbDpzcGFjZT0icHJlc2VydmUiPlNhdmUgUmF3IGFuZCBGaW5hbCBSZXBvcnQgdG8gRW50ZXJwcmlzZSBTeXN0ZW08L3RzcGFuPjwvdGV4dD48L2c+PC9nPjwvZz48ZyBzdHlsZT0ib3BhY2l0eTogMTsiIHRyYW5zZm9ybT0idHJhbnNsYXRlKDU0Mi45MjE4NzUsODQxLjUxMzI4Mjc3NTg3ODkpIiBpZD0iZmxvd2NoYXJ0LUotODkiIGNsYXNzPSJub2RlIGRlZmF1bHQiPjxyZWN0IGNsYXNzPSJsYWJlbC1jb250YWluZXIiIGhlaWdodD0iMzkiIHdpZHRoPSIyNDMuNDA2MjUiIHk9Ii0xOS41IiB4PSItMTIxLjcwMzEyNSIgcnk9IjAiIHJ4PSIwIj48L3JlY3Q+PGcgdHJhbnNmb3JtPSJ0cmFuc2xhdGUoMCwwKSIgY2xhc3M9ImxhYmVsIj48ZyB0cmFuc2Zvcm09InRyYW5zbGF0ZSgtMTExLjcwMzEyNSwtOS41KSI+PHRleHQgc3R5bGU9IiI+PHRzcGFuIHg9IjEiIGR5PSIxZW0iIHhtbDpzcGFjZT0icHJlc2VydmUiPk5vdGlmeSBFbXBsb3llZSBvZiBJbnZhbGlkIE9UUDwvdHNwYW4+PC90ZXh0PjwvZz48L2c+PC9nPjxnIHN0eWxlPSJvcGFjaXR5OiAxOyIgdHJhbnNmb3JtPSJ0cmFuc2xhdGUoMTg5LjYwOTM3NSw5MzAuNTEzMjgyNzc1ODc4OSkiIGlkPSJmbG93Y2hhcnQtSy05MyIgY2xhc3M9Im5vZGUgZGVmYXVsdCI+PHJlY3QgY2xhc3M9ImxhYmVsLWNvbnRhaW5lciIgaGVpZ2h0PSIzOSIgd2lkdGg9IjIwMC42MjUiIHk9Ii0xOS41IiB4PSItMTAwLjMxMjUiIHJ5PSIwIiByeD0iMCI+PC9yZWN0PjxnIHRyYW5zZm9ybT0idHJhbnNsYXRlKDAsMCkiIGNsYXNzPSJsYWJlbCI+PGcgdHJhbnNmb3JtPSJ0cmFuc2xhdGUoLTkwLjMxMjUsLTkuNSkiPjx0ZXh0IHN0eWxlPSIiPjx0c3BhbiB4PSIxIiBkeT0iMWVtIiB4bWw6c3BhY2U9InByZXNlcnZlIj5Db21wbGV0aW9uIENvbmZpcm1hdGlvbjwvdHNwYW4+PC90ZXh0PjwvZz48L2c+PC9nPjxnIHN0eWxlPSJvcGFjaXR5OiAxOyIgdHJhbnNmb3JtPSJ0cmFuc2xhdGUoMTg5LjYwOTM3NSwxMDE5LjUxMzI4Mjc3NTg3ODkpIiBpZD0iZmxvd2NoYXJ0LUwtOTUiIGNsYXNzPSJub2RlIGRlZmF1bHQiPjxyZWN0IGNsYXNzPSJsYWJlbC1jb250YWluZXIiIGhlaWdodD0iMzkiIHdpZHRoPSIxMjMuNDY4NzUiIHk9Ii0xOS41IiB4PSItNjEuNzM0Mzc1IiByeT0iMCIgcng9IjAiPjwvcmVjdD48ZyB0cmFuc2Zvcm09InRyYW5zbGF0ZSgwLDApIiBjbGFzcz0ibGFiZWwiPjxnIHRyYW5zZm9ybT0idHJhbnNsYXRlKC01MS43MzQzNzUsLTkuNSkiPjx0ZXh0IHN0eWxlPSIiPjx0c3BhbiB4PSIxIiBkeT0iMWVtIiB4bWw6c3BhY2U9InByZXNlcnZlIj5FbmQgb2YgUHJvY2VzczwvdHNwYW4+PC90ZXh0PjwvZz48L2c+PC9nPjwvZz48L2c+PC9nPjwvc3ZnPg==;movable=0;resizable=0;rotatable=0;deletable=0;editable=0;connectable=0;" vertex="1" parent="1">
                        <mxGeometry x="330" y="10" width="210" height="1047.01" as="geometry"/>
                    </mxCell>
                </UserObject>
            </root>
        </mxGraphModel>
    </diagram>
    <diagram id="dscYpjNAtP1pkBaBgCc3" name="document_ai">
        <mxGraphModel dx="347" dy="1297" grid="1" gridSize="10" guides="1" tooltips="1" connect="1" arrows="1" fold="1" page="1" pageScale="1" pageWidth="850" pageHeight="1100" math="0" shadow="0">
            <root>
                <mxCell id="0"/>
                <mxCell id="1" parent="0"/>
                <UserObject label="" mermaidData="{&#10;  &quot;data&quot;: &quot;graph TD\n    A[Employee Uploads Excel File] --&gt; B[AI Processes File and Generates Report]\n    B --&gt; C[Employee Reviews Document and Report]\n    C --&gt; D[Employee Approves Document]\n    D --&gt; E[Generate and Send OTP to Employee's Email]\n    E --&gt; F[Employee Receives OTP]\n    F --&gt; G[Employee Enters OTP into System]\n    G --&gt; H{Verify OTP}\n    H --&gt;|Valid| I[Save Raw and Final Report to Enterprise System]\n    H --&gt;|Invalid| J[Notify Employee of Invalid OTP]\n    J --&gt; E\n    I --&gt; K[Completion Confirmation]\n    K --&gt; L[End of Process]\n&quot;,&#10;  &quot;config&quot;: {&#10;    &quot;theme&quot;: &quot;neutral&quot;,&#10;    &quot;arrowMarkerAbsolute&quot;: false,&#10;    &quot;flowchart&quot;: {&#10;      &quot;htmlLabels&quot;: false&#10;    },&#10;    &quot;sequence&quot;: {&#10;      &quot;diagramMarginX&quot;: 50,&#10;      &quot;diagramMarginY&quot;: 10,&#10;      &quot;actorMargin&quot;: 50,&#10;      &quot;width&quot;: 150,&#10;      &quot;height&quot;: 65,&#10;      &quot;boxMargin&quot;: 10,&#10;      &quot;boxTextMargin&quot;: 5,&#10;      &quot;noteMargin&quot;: 10,&#10;      &quot;messageMargin&quot;: 35,&#10;      &quot;mirrorActors&quot;: true,&#10;      &quot;bottomMarginAdj&quot;: 1,&#10;      &quot;useMaxWidth&quot;: true,&#10;      &quot;rightAngles&quot;: false,&#10;      &quot;showSequenceNumbers&quot;: false&#10;    },&#10;    &quot;gantt&quot;: {&#10;      &quot;titleTopMargin&quot;: 25,&#10;      &quot;barHeight&quot;: 20,&#10;      &quot;barGap&quot;: 4,&#10;      &quot;topPadding&quot;: 50,&#10;      &quot;leftPadding&quot;: 75,&#10;      &quot;gridLineStartPadding&quot;: 35,&#10;      &quot;fontSize&quot;: 11,&#10;      &quot;fontFamily&quot;: &quot;\&quot;Open-Sans\&quot;, \&quot;sans-serif\&quot;&quot;,&#10;      &quot;numberSectionStyles&quot;: 4,&#10;      &quot;axisFormat&quot;: &quot;%Y-%m-%d&quot;&#10;    }&#10;  }&#10;}" id="Rh5IrFwmyjbkHZ6SBCNd-1">
                    <mxCell style="shape=image;noLabel=1;verticalAlign=top;imageAspect=1;image=data:image/svg+xml,PHN2ZyB2aWV3Qm94PSIwIDAgNjcyLjYyNSAxMDQ3LjAxMzI4Mjc3NTg3OSIgc3R5bGU9Im1heC13aWR0aDogNjcyLjYyNXB4OyIgaGVpZ2h0PSIxMDQ3LjAxMzI4Mjc3NTg3OSIgYXJpYS1sYWJlbGxlZGJ5PSJjaGFydC10aXRsZS1nZU1lcm1haWRPdXRwdXQtMTcyNjE2MTM1NzYxMyBjaGFydC1kZXNjLWdlTWVybWFpZE91dHB1dC0xNzI2MTYxMzU3NjEzIiByb2xlPSJpbWciIHhtbG5zOnhsaW5rPSJodHRwOi8vd3d3LnczLm9yZy8xOTk5L3hsaW5rIiB4bWxucz0iaHR0cDovL3d3dy53My5vcmcvMjAwMC9zdmciIHdpZHRoPSIxMDAlIiBpZD0iZ2VNZXJtYWlkT3V0cHV0LTE3MjYxNjEzNTc2MTMiPjx0aXRsZSBpZD0iY2hhcnQtdGl0bGUtZ2VNZXJtYWlkT3V0cHV0LTE3MjYxNjEzNTc2MTMiPjwvdGl0bGU+PGRlc2MgaWQ9ImNoYXJ0LWRlc2MtZ2VNZXJtYWlkT3V0cHV0LTE3MjYxNjEzNTc2MTMiPjwvZGVzYz48c3R5bGU+I2dlTWVybWFpZE91dHB1dC0xNzI2MTYxMzU3NjEzIHtmb250LWZhbWlseToidHJlYnVjaGV0IG1zIix2ZXJkYW5hLGFyaWFsLHNhbnMtc2VyaWY7Zm9udC1zaXplOjE2cHg7ZmlsbDojY2NjO30jZ2VNZXJtYWlkT3V0cHV0LTE3MjYxNjEzNTc2MTMgLmVycm9yLWljb257ZmlsbDojYTQ0MTQxO30jZ2VNZXJtYWlkT3V0cHV0LTE3MjYxNjEzNTc2MTMgLmVycm9yLXRleHR7ZmlsbDojZGRkO3N0cm9rZTojZGRkO30jZ2VNZXJtYWlkT3V0cHV0LTE3MjYxNjEzNTc2MTMgLmVkZ2UtdGhpY2tuZXNzLW5vcm1hbHtzdHJva2Utd2lkdGg6MnB4O30jZ2VNZXJtYWlkT3V0cHV0LTE3MjYxNjEzNTc2MTMgLmVkZ2UtdGhpY2tuZXNzLXRoaWNre3N0cm9rZS13aWR0aDozLjVweDt9I2dlTWVybWFpZE91dHB1dC0xNzI2MTYxMzU3NjEzIC5lZGdlLXBhdHRlcm4tc29saWR7c3Ryb2tlLWRhc2hhcnJheTowO30jZ2VNZXJtYWlkT3V0cHV0LTE3MjYxNjEzNTc2MTMgLmVkZ2UtcGF0dGVybi1kYXNoZWR7c3Ryb2tlLWRhc2hhcnJheTozO30jZ2VNZXJtYWlkT3V0cHV0LTE3MjYxNjEzNTc2MTMgLmVkZ2UtcGF0dGVybi1kb3R0ZWR7c3Ryb2tlLWRhc2hhcnJheToyO30jZ2VNZXJtYWlkT3V0cHV0LTE3MjYxNjEzNTc2MTMgLm1hcmtlcntmaWxsOmxpZ2h0Z3JleTtzdHJva2U6bGlnaHRncmV5O30jZ2VNZXJtYWlkT3V0cHV0LTE3MjYxNjEzNTc2MTMgLm1hcmtlci5jcm9zc3tzdHJva2U6bGlnaHRncmV5O30jZ2VNZXJtYWlkT3V0cHV0LTE3MjYxNjEzNTc2MTMgc3Zne2ZvbnQtZmFtaWx5OiJ0cmVidWNoZXQgbXMiLHZlcmRhbmEsYXJpYWwsc2Fucy1zZXJpZjtmb250LXNpemU6MTZweDt9I2dlTWVybWFpZE91dHB1dC0xNzI2MTYxMzU3NjEzIC5sYWJlbHtmb250LWZhbWlseToidHJlYnVjaGV0IG1zIix2ZXJkYW5hLGFyaWFsLHNhbnMtc2VyaWY7Y29sb3I6I2NjYzt9I2dlTWVybWFpZE91dHB1dC0xNzI2MTYxMzU3NjEzIC5jbHVzdGVyLWxhYmVsIHRleHR7ZmlsbDojRjlGRkZFO30jZ2VNZXJtYWlkT3V0cHV0LTE3MjYxNjEzNTc2MTMgLmNsdXN0ZXItbGFiZWwgc3Bhbntjb2xvcjojRjlGRkZFO30jZ2VNZXJtYWlkT3V0cHV0LTE3MjYxNjEzNTc2MTMgLmxhYmVsIHRleHQsI2dlTWVybWFpZE91dHB1dC0xNzI2MTYxMzU3NjEzIHNwYW57ZmlsbDojY2NjO2NvbG9yOiNjY2M7fSNnZU1lcm1haWRPdXRwdXQtMTcyNjE2MTM1NzYxMyAubm9kZSByZWN0LCNnZU1lcm1haWRPdXRwdXQtMTcyNjE2MTM1NzYxMyAubm9kZSBjaXJjbGUsI2dlTWVybWFpZE91dHB1dC0xNzI2MTYxMzU3NjEzIC5ub2RlIGVsbGlwc2UsI2dlTWVybWFpZE91dHB1dC0xNzI2MTYxMzU3NjEzIC5ub2RlIHBvbHlnb24sI2dlTWVybWFpZE91dHB1dC0xNzI2MTYxMzU3NjEzIC5ub2RlIHBhdGh7ZmlsbDojMWYyMDIwO3N0cm9rZTojODFCMURCO3N0cm9rZS13aWR0aDoxcHg7fSNnZU1lcm1haWRPdXRwdXQtMTcyNjE2MTM1NzYxMyAubm9kZSAubGFiZWx7dGV4dC1hbGlnbjpjZW50ZXI7fSNnZU1lcm1haWRPdXRwdXQtMTcyNjE2MTM1NzYxMyAubm9kZS5jbGlja2FibGV7Y3Vyc29yOnBvaW50ZXI7fSNnZU1lcm1haWRPdXRwdXQtMTcyNjE2MTM1NzYxMyAuYXJyb3doZWFkUGF0aHtmaWxsOmxpZ2h0Z3JleTt9I2dlTWVybWFpZE91dHB1dC0xNzI2MTYxMzU3NjEzIC5lZGdlUGF0aCAucGF0aHtzdHJva2U6bGlnaHRncmV5O3N0cm9rZS13aWR0aDoyLjBweDt9I2dlTWVybWFpZE91dHB1dC0xNzI2MTYxMzU3NjEzIC5mbG93Y2hhcnQtbGlua3tzdHJva2U6bGlnaHRncmV5O2ZpbGw6bm9uZTt9I2dlTWVybWFpZE91dHB1dC0xNzI2MTYxMzU3NjEzIC5lZGdlTGFiZWx7YmFja2dyb3VuZC1jb2xvcjpoc2woMCwgMCUsIDM0LjQxMTc2NDcwNTklKTt0ZXh0LWFsaWduOmNlbnRlcjt9I2dlTWVybWFpZE91dHB1dC0xNzI2MTYxMzU3NjEzIC5lZGdlTGFiZWwgcmVjdHtvcGFjaXR5OjAuNTtiYWNrZ3JvdW5kLWNvbG9yOmhzbCgwLCAwJSwgMzQuNDExNzY0NzA1OSUpO2ZpbGw6aHNsKDAsIDAlLCAzNC40MTE3NjQ3MDU5JSk7fSNnZU1lcm1haWRPdXRwdXQtMTcyNjE2MTM1NzYxMyAuY2x1c3RlciByZWN0e2ZpbGw6aHNsKDE4MCwgMS41ODczMDE1ODczJSwgMjguMzUyOTQxMTc2NSUpO3N0cm9rZTpyZ2JhKDI1NSwgMjU1LCAyNTUsIDAuMjUpO3N0cm9rZS13aWR0aDoxcHg7fSNnZU1lcm1haWRPdXRwdXQtMTcyNjE2MTM1NzYxMyAuY2x1c3RlciB0ZXh0e2ZpbGw6I0Y5RkZGRTt9I2dlTWVybWFpZE91dHB1dC0xNzI2MTYxMzU3NjEzIC5jbHVzdGVyIHNwYW57Y29sb3I6I0Y5RkZGRTt9I2dlTWVybWFpZE91dHB1dC0xNzI2MTYxMzU3NjEzIGRpdi5tZXJtYWlkVG9vbHRpcHtwb3NpdGlvbjphYnNvbHV0ZTt0ZXh0LWFsaWduOmNlbnRlcjttYXgtd2lkdGg6MjAwcHg7cGFkZGluZzoycHg7Zm9udC1mYW1pbHk6InRyZWJ1Y2hldCBtcyIsdmVyZGFuYSxhcmlhbCxzYW5zLXNlcmlmO2ZvbnQtc2l6ZToxMnB4O2JhY2tncm91bmQ6aHNsKDIwLCAxLjU4NzMwMTU4NzMlLCAxMi4zNTI5NDExNzY1JSk7Ym9yZGVyOjFweCBzb2xpZCByZ2JhKDI1NSwgMjU1LCAyNTUsIDAuMjUpO2JvcmRlci1yYWRpdXM6MnB4O3BvaW50ZXItZXZlbnRzOm5vbmU7ei1pbmRleDoxMDA7fSNnZU1lcm1haWRPdXRwdXQtMTcyNjE2MTM1NzYxMyA6cm9vdHstLW1lcm1haWQtZm9udC1mYW1pbHk6InRyZWJ1Y2hldCBtcyIsdmVyZGFuYSxhcmlhbCxzYW5zLXNlcmlmO308L3N0eWxlPjxnIHRyYW5zZm9ybT0idHJhbnNsYXRlKDAsIDApIj48ZyBjbGFzcz0ib3V0cHV0Ij48ZyBjbGFzcz0iY2x1c3RlcnMiPjwvZz48ZyBjbGFzcz0iZWRnZVBhdGhzIj48ZyBzdHlsZT0ib3BhY2l0eTogMTsiIGlkPSJMLUEtQiIgY2xhc3M9ImVkZ2VQYXRoIExTLUEgTEUtQiI+PHBhdGggc3R5bGU9ImZpbGw6bm9uZSIgbWFya2VyLWVuZD0idXJsKCNhcnJvd2hlYWQ2MykiIGQ9Ik0zNjYuMjY1NjI1LDQ3TDM2Ni4yNjU2MjUsNTEuMTY2NjY2NjY2NjY2NjY0QzM2Ni4yNjU2MjUsNTUuMzMzMzMzMzMzMzMzMzM2LDM2Ni4yNjU2MjUsNjMuNjY2NjY2NjY2NjY2NjY0LDM2Ni4yNjU2MjUsNzJDMzY2LjI2NTYyNSw4MC4zMzMzMzMzMzMzMzMzMywzNjYuMjY1NjI1LDg4LjY2NjY2NjY2NjY2NjY3LDM2Ni4yNjU2MjUsOTIuODMzMzMzMzMzMzMzMzNMMzY2LjI2NTYyNSw5NyIgY2xhc3M9InBhdGgiPjwvcGF0aD48ZGVmcz48bWFya2VyIG9yaWVudD0iYXV0byIgbWFya2VySGVpZ2h0PSI2IiBtYXJrZXJXaWR0aD0iOCIgbWFya2VyVW5pdHM9InN0cm9rZVdpZHRoIiByZWZZPSI1IiByZWZYPSI5IiB2aWV3Qm94PSIwIDAgMTAgMTAiIGlkPSJhcnJvd2hlYWQ2MyI+PHBhdGggc3R5bGU9InN0cm9rZS13aWR0aDogMTsgc3Ryb2tlLWRhc2hhcnJheTogMSwgMDsiIGNsYXNzPSJhcnJvd2hlYWRQYXRoIiBkPSJNIDAgMCBMIDEwIDUgTCAwIDEwIHoiPjwvcGF0aD48L21hcmtlcj48L2RlZnM+PC9nPjxnIHN0eWxlPSJvcGFjaXR5OiAxOyIgaWQ9IkwtQi1DIiBjbGFzcz0iZWRnZVBhdGggTFMtQiBMRS1DIj48cGF0aCBzdHlsZT0iZmlsbDpub25lIiBtYXJrZXItZW5kPSJ1cmwoI2Fycm93aGVhZDY0KSIgZD0iTTM2Ni4yNjU2MjUsMTM2TDM2Ni4yNjU2MjUsMTQwLjE2NjY2NjY2NjY2NjY2QzM2Ni4yNjU2MjUsMTQ0LjMzMzMzMzMzMzMzMzM0LDM2Ni4yNjU2MjUsMTUyLjY2NjY2NjY2NjY2NjY2LDM2Ni4yNjU2MjUsMTYxQzM2Ni4yNjU2MjUsMTY5LjMzMzMzMzMzMzMzMzM0LDM2Ni4yNjU2MjUsMTc3LjY2NjY2NjY2NjY2NjY2LDM2Ni4yNjU2MjUsMTgxLjgzMzMzMzMzMzMzMzM0TDM2Ni4yNjU2MjUsMTg2IiBjbGFzcz0icGF0aCI+PC9wYXRoPjxkZWZzPjxtYXJrZXIgb3JpZW50PSJhdXRvIiBtYXJrZXJIZWlnaHQ9IjYiIG1hcmtlcldpZHRoPSI4IiBtYXJrZXJVbml0cz0ic3Ryb2tlV2lkdGgiIHJlZlk9IjUiIHJlZlg9IjkiIHZpZXdCb3g9IjAgMCAxMCAxMCIgaWQ9ImFycm93aGVhZDY0Ij48cGF0aCBzdHlsZT0ic3Ryb2tlLXdpZHRoOiAxOyBzdHJva2UtZGFzaGFycmF5OiAxLCAwOyIgY2xhc3M9ImFycm93aGVhZFBhdGgiIGQ9Ik0gMCAwIEwgMTAgNSBMIDAgMTAgeiI+PC9wYXRoPjwvbWFya2VyPjwvZGVmcz48L2c+PGcgc3R5bGU9Im9wYWNpdHk6IDE7IiBpZD0iTC1DLUQiIGNsYXNzPSJlZGdlUGF0aCBMUy1DIExFLUQiPjxwYXRoIHN0eWxlPSJmaWxsOm5vbmUiIG1hcmtlci1lbmQ9InVybCgjYXJyb3doZWFkNjUpIiBkPSJNMzY2LjI2NTYyNSwyMjVMMzY2LjI2NTYyNSwyMjkuMTY2NjY2NjY2NjY2NjZDMzY2LjI2NTYyNSwyMzMuMzMzMzMzMzMzMzMzMzQsMzY2LjI2NTYyNSwyNDEuNjY2NjY2NjY2NjY2NjYsMzY2LjI2NTYyNSwyNTBDMzY2LjI2NTYyNSwyNTguMzMzMzMzMzMzMzMzMywzNjYuMjY1NjI1LDI2Ni42NjY2NjY2NjY2NjY3LDM2Ni4yNjU2MjUsMjcwLjgzMzMzMzMzMzMzMzNMMzY2LjI2NTYyNSwyNzUiIGNsYXNzPSJwYXRoIj48L3BhdGg+PGRlZnM+PG1hcmtlciBvcmllbnQ9ImF1dG8iIG1hcmtlckhlaWdodD0iNiIgbWFya2VyV2lkdGg9IjgiIG1hcmtlclVuaXRzPSJzdHJva2VXaWR0aCIgcmVmWT0iNSIgcmVmWD0iOSIgdmlld0JveD0iMCAwIDEwIDEwIiBpZD0iYXJyb3doZWFkNjUiPjxwYXRoIHN0eWxlPSJzdHJva2Utd2lkdGg6IDE7IHN0cm9rZS1kYXNoYXJyYXk6IDEsIDA7IiBjbGFzcz0iYXJyb3doZWFkUGF0aCIgZD0iTSAwIDAgTCAxMCA1IEwgMCAxMCB6Ij48L3BhdGg+PC9tYXJrZXI+PC9kZWZzPjwvZz48ZyBzdHlsZT0ib3BhY2l0eTogMTsiIGlkPSJMLUQtRSIgY2xhc3M9ImVkZ2VQYXRoIExTLUQgTEUtRSI+PHBhdGggc3R5bGU9ImZpbGw6bm9uZSIgbWFya2VyLWVuZD0idXJsKCNhcnJvd2hlYWQ2NikiIGQ9Ik0zNjYuMjY1NjI1LDMxNEwzNjYuMjY1NjI1LDMxOC4xNjY2NjY2NjY2NjY3QzM2Ni4yNjU2MjUsMzIyLjMzMzMzMzMzMzMzMzMsMzY2LjI2NTYyNSwzMzAuNjY2NjY2NjY2NjY2NywzNjYuMjY1NjI1LDMzOUMzNjYuMjY1NjI1LDM0Ny4zMzMzMzMzMzMzMzMzLDM2Ni4yNjU2MjUsMzU1LjY2NjY2NjY2NjY2NjcsMzY2LjI2NTYyNSwzNTkuODMzMzMzMzMzMzMzM0wzNjYuMjY1NjI1LDM2NCIgY2xhc3M9InBhdGgiPjwvcGF0aD48ZGVmcz48bWFya2VyIG9yaWVudD0iYXV0byIgbWFya2VySGVpZ2h0PSI2IiBtYXJrZXJXaWR0aD0iOCIgbWFya2VyVW5pdHM9InN0cm9rZVdpZHRoIiByZWZZPSI1IiByZWZYPSI5IiB2aWV3Qm94PSIwIDAgMTAgMTAiIGlkPSJhcnJvd2hlYWQ2NiI+PHBhdGggc3R5bGU9InN0cm9rZS13aWR0aDogMTsgc3Ryb2tlLWRhc2hhcnJheTogMSwgMDsiIGNsYXNzPSJhcnJvd2hlYWRQYXRoIiBkPSJNIDAgMCBMIDEwIDUgTCAwIDEwIHoiPjwvcGF0aD48L21hcmtlcj48L2RlZnM+PC9nPjxnIHN0eWxlPSJvcGFjaXR5OiAxOyIgaWQ9IkwtRS1GIiBjbGFzcz0iZWRnZVBhdGggTFMtRSBMRS1GIj48cGF0aCBzdHlsZT0iZmlsbDpub25lIiBtYXJrZXItZW5kPSJ1cmwoI2Fycm93aGVhZDY3KSIgZD0iTTMwMi4zODkwODg4MzQyNjk2Nyw0MDNMMjg4Ljc0MDI1NjMyMDIyNDcsNDA3LjE2NjY2NjY2NjY2NjdDMjc1LjA5MTQyMzgwNjE3OTc2LDQxMS4zMzMzMzMzMzMzMzMzLDI0Ny43OTM3NTg3NzgwODk4OCw0MTkuNjY2NjY2NjY2NjY2NywyMzQuMTQ0OTI2MjY0MDQ0OTMsNDI4QzIyMC40OTYwOTM3NSw0MzYuMzMzMzMzMzMzMzMzMywyMjAuNDk2MDkzNzUsNDQ0LjY2NjY2NjY2NjY2NjcsMjIwLjQ5NjA5Mzc1LDQ0OC44MzMzMzMzMzMzMzMzTDIyMC40OTYwOTM3NSw0NTMiIGNsYXNzPSJwYXRoIj48L3BhdGg+PGRlZnM+PG1hcmtlciBvcmllbnQ9ImF1dG8iIG1hcmtlckhlaWdodD0iNiIgbWFya2VyV2lkdGg9IjgiIG1hcmtlclVuaXRzPSJzdHJva2VXaWR0aCIgcmVmWT0iNSIgcmVmWD0iOSIgdmlld0JveD0iMCAwIDEwIDEwIiBpZD0iYXJyb3doZWFkNjciPjxwYXRoIHN0eWxlPSJzdHJva2Utd2lkdGg6IDE7IHN0cm9rZS1kYXNoYXJyYXk6IDEsIDA7IiBjbGFzcz0iYXJyb3doZWFkUGF0aCIgZD0iTSAwIDAgTCAxMCA1IEwgMCAxMCB6Ij48L3BhdGg+PC9tYXJrZXI+PC9kZWZzPjwvZz48ZyBzdHlsZT0ib3BhY2l0eTogMTsiIGlkPSJMLUYtRyIgY2xhc3M9ImVkZ2VQYXRoIExTLUYgTEUtRyI+PHBhdGggc3R5bGU9ImZpbGw6bm9uZSIgbWFya2VyLWVuZD0idXJsKCNhcnJvd2hlYWQ2OCkiIGQ9Ik0yMjAuNDk2MDkzNzUsNDkyTDIyMC40OTYwOTM3NSw0OTYuMTY2NjY2NjY2NjY2N0MyMjAuNDk2MDkzNzUsNTAwLjMzMzMzMzMzMzMzMzMsMjIwLjQ5NjA5Mzc1LDUwOC42NjY2NjY2NjY2NjY3LDIyMC40OTYwOTM3NSw1MTdDMjIwLjQ5NjA5Mzc1LDUyNS4zMzMzMzMzMzMzMzM0LDIyMC40OTYwOTM3NSw1MzMuNjY2NjY2NjY2NjY2NiwyMjAuNDk2MDkzNzUsNTM3LjgzMzMzMzMzMzMzMzRMMjIwLjQ5NjA5Mzc1LDU0MiIgY2xhc3M9InBhdGgiPjwvcGF0aD48ZGVmcz48bWFya2VyIG9yaWVudD0iYXV0byIgbWFya2VySGVpZ2h0PSI2IiBtYXJrZXJXaWR0aD0iOCIgbWFya2VyVW5pdHM9InN0cm9rZVdpZHRoIiByZWZZPSI1IiByZWZYPSI5IiB2aWV3Qm94PSIwIDAgMTAgMTAiIGlkPSJhcnJvd2hlYWQ2OCI+PHBhdGggc3R5bGU9InN0cm9rZS13aWR0aDogMTsgc3Ryb2tlLWRhc2hhcnJheTogMSwgMDsiIGNsYXNzPSJhcnJvd2hlYWRQYXRoIiBkPSJNIDAgMCBMIDEwIDUgTCAwIDEwIHoiPjwvcGF0aD48L21hcmtlcj48L2RlZnM+PC9nPjxnIHN0eWxlPSJvcGFjaXR5OiAxOyIgaWQ9IkwtRy1IIiBjbGFzcz0iZWRnZVBhdGggTFMtRyBMRS1IIj48cGF0aCBzdHlsZT0iZmlsbDpub25lIiBtYXJrZXItZW5kPSJ1cmwoI2Fycm93aGVhZDY5KSIgZD0iTTIyMC40OTYwOTM3NSw1ODFMMjIwLjQ5NjA5Mzc1LDU4NS4xNjY2NjY2NjY2NjY2QzIyMC40OTYwOTM3NSw1ODkuMzMzMzMzMzMzMzMzNCwyMjAuNDk2MDkzNzUsNTk3LjY2NjY2NjY2NjY2NjYsMjIwLjU3OTQyNzA4MzMzMzM0LDYwNi4wODMzMzM0NjA0ODk5QzIyMC42NjI3NjA0MTY2NjY2Niw2MTQuNTAwMDAwMjU0MzEzMSwyMjAuODI5NDI3MDgzMzMzMzQsNjIzLjAwMDAwMDUwODYyNjMsMjIwLjkxMjc2MDQxNjY2NjY2LDYyNy4yNTAwMDA2MzU3ODI4TDIyMC45OTYwOTM3NSw2MzEuNTAwMDAwNzYyOTM5NCIgY2xhc3M9InBhdGgiPjwvcGF0aD48ZGVmcz48bWFya2VyIG9yaWVudD0iYXV0byIgbWFya2VySGVpZ2h0PSI2IiBtYXJrZXJXaWR0aD0iOCIgbWFya2VyVW5pdHM9InN0cm9rZVdpZHRoIiByZWZZPSI1IiByZWZYPSI5IiB2aWV3Qm94PSIwIDAgMTAgMTAiIGlkPSJhcnJvd2hlYWQ2OSI+PHBhdGggc3R5bGU9InN0cm9rZS13aWR0aDogMTsgc3Ryb2tlLWRhc2hhcnJheTogMSwgMDsiIGNsYXNzPSJhcnJvd2hlYWRQYXRoIiBkPSJNIDAgMCBMIDEwIDUgTCAwIDEwIHoiPjwvcGF0aD48L21hcmtlcj48L2RlZnM+PC9nPjxnIHN0eWxlPSJvcGFjaXR5OiAxOyIgaWQ9IkwtSC1JIiBjbGFzcz0iZWRnZVBhdGggTFMtSCBMRS1JIj48cGF0aCBzdHlsZT0iZmlsbDpub25lIiBtYXJrZXItZW5kPSJ1cmwoI2Fycm93aGVhZDcwKSIgZD0iTTIwNi4wODc5MTM4NTE4NjA3OCw3MzguNjA1MTAyMTE0ODAwNEwyMDMuMzQxNDkwNzA5ODgzOTcsNzQ2Ljc1NjQ2NTU1ODMxMzRDMjAwLjU5NTA2NzU2NzkwNzIsNzU0LjkwNzgyOTAwMTgyNjYsMTk1LjEwMjIyMTI4Mzk1MzU4LDc3MS4yMTA1NTU4ODg4NTI4LDE5Mi4zNTU3OTgxNDE5NzY4LDc4NS4xMTE5MTkzMzIzNjU4QzE4OS42MDkzNzUsNzk5LjAxMzI4Mjc3NTg3ODksMTg5LjYwOTM3NSw4MTAuNTEzMjgyNzc1ODc4OSwxODkuNjA5Mzc1LDgxNi4yNjMyODI3NzU4Nzg5TDE4OS42MDkzNzUsODIyLjAxMzI4Mjc3NTg3ODkiIGNsYXNzPSJwYXRoIj48L3BhdGg+PGRlZnM+PG1hcmtlciBvcmllbnQ9ImF1dG8iIG1hcmtlckhlaWdodD0iNiIgbWFya2VyV2lkdGg9IjgiIG1hcmtlclVuaXRzPSJzdHJva2VXaWR0aCIgcmVmWT0iNSIgcmVmWD0iOSIgdmlld0JveD0iMCAwIDEwIDEwIiBpZD0iYXJyb3doZWFkNzAiPjxwYXRoIHN0eWxlPSJzdHJva2Utd2lkdGg6IDE7IHN0cm9rZS1kYXNoYXJyYXk6IDEsIDA7IiBjbGFzcz0iYXJyb3doZWFkUGF0aCIgZD0iTSAwIDAgTCAxMCA1IEwgMCAxMCB6Ij48L3BhdGg+PC9tYXJrZXI+PC9kZWZzPjwvZz48ZyBzdHlsZT0ib3BhY2l0eTogMTsiIGlkPSJMLUgtSiIgY2xhc3M9ImVkZ2VQYXRoIExTLUggTEUtSiI+PHBhdGggc3R5bGU9ImZpbGw6bm9uZSIgbWFya2VyLWVuZD0idXJsKCNhcnJvd2hlYWQ3MSkiIGQ9Ik0yNjAuNTk0NDUzNTE2ODA3LDcxMy45MTQ5MjA3MjAyNTMxTDI4My4zNTQxMDE4ODkwMDU4LDcyNi4xODEzMTQzOTYxOTA4QzMwNi4xMTM3NTAyNjEyMDQ2NCw3MzguNDQ3NzA4MDcyMTI4NCwzNTEuNjMzMDQ3MDA1NjAyMyw3NjIuOTgwNDk1NDI0MDAzNiwzODkuOTE0NDUxMDIwMTYyMjMsNzgwLjk5Njg4OTA5OTk0MTNDNDI4LjE5NTg1NTAzNDcyMjIzLDc5OS4wMTMyODI3NzU4Nzg5LDQ1OS4yMzkzNjYzMTk0NDQ1LDgxMC41MTMyODI3NzU4Nzg5LDQ3NC43NjExMjE5NjE4MDU2LDgxNi4yNjMyODI3NzU4Nzg5TDQ5MC4yODI4Nzc2MDQxNjY3LDgyMi4wMTMyODI3NzU4Nzg5IiBjbGFzcz0icGF0aCI+PC9wYXRoPjxkZWZzPjxtYXJrZXIgb3JpZW50PSJhdXRvIiBtYXJrZXJIZWlnaHQ9IjYiIG1hcmtlcldpZHRoPSI4IiBtYXJrZXJVbml0cz0ic3Ryb2tlV2lkdGgiIHJlZlk9IjUiIHJlZlg9IjkiIHZpZXdCb3g9IjAgMCAxMCAxMCIgaWQ9ImFycm93aGVhZDcxIj48cGF0aCBzdHlsZT0ic3Ryb2tlLXdpZHRoOiAxOyBzdHJva2UtZGFzaGFycmF5OiAxLCAwOyIgY2xhc3M9ImFycm93aGVhZFBhdGgiIGQ9Ik0gMCAwIEwgMTAgNSBMIDAgMTAgeiI+PC9wYXRoPjwvbWFya2VyPjwvZGVmcz48L2c+PGcgc3R5bGU9Im9wYWNpdHk6IDE7IiBpZD0iTC1KLUUiIGNsYXNzPSJlZGdlUGF0aCBMUy1KIExFLUUiPjxwYXRoIHN0eWxlPSJmaWxsOm5vbmUiIG1hcmtlci1lbmQ9InVybCgjYXJyb3doZWFkNzIpIiBkPSJNNTUwLjg0MDkyODgxOTQ0NDUsODIyLjAxMzI4Mjc3NTg3ODlMNTUzLjE3NjAzNDQzMjg3MDMsODE2LjI2MzI4Mjc3NTg3ODlDNTU1LjUxMTE0MDA0NjI5NjMsODEwLjUxMzI4Mjc3NTg3ODksNTYwLjE4MTM1MTI3MzE0ODIsNzk5LjAxMzI4Mjc3NTg3ODksNTYyLjUxNjQ1Njg4NjU3NCw3NzcuMzQ1NTA5MjExMjIyM0M1NjQuODUxNTYyNSw3NTUuNjc3NzM1NjQ2NTY1OCw1NjQuODUxNTYyNSw3MjMuODQyMTg4NTE3MjUyNiw1NjQuODUxNTYyNSw2OTMuNTg5OTc0NzIxMjcyOEM1NjQuODUxNTYyNSw2NjMuMzM3NzYwOTI1MjkzLDU2NC44NTE1NjI1LDYzNC42Njg4ODA0NjI2NDY1LDU2NC44NTE1NjI1LDYxMi45MTc3NzM1NjQ2NTY2QzU2NC44NTE1NjI1LDU5MS4xNjY2NjY2NjY2NjY2LDU2NC44NTE1NjI1LDU3Ni4zMzMzMzMzMzMzMzM0LDU2NC44NTE1NjI1LDU2MS41QzU2NC44NTE1NjI1LDU0Ni42NjY2NjY2NjY2NjY2LDU2NC44NTE1NjI1LDUzMS44MzMzMzMzMzMzMzM0LDU2NC44NTE1NjI1LDUxN0M1NjQuODUxNTYyNSw1MDIuMTY2NjY2NjY2NjY2Nyw1NjQuODUxNTYyNSw0ODcuMzMzMzMzMzMzMzMzMyw1NjQuODUxNTYyNSw0NzIuNUM1NjQuODUxNTYyNSw0NTcuNjY2NjY2NjY2NjY2Nyw1NjQuODUxNTYyNSw0NDIuODMzMzMzMzMzMzMzMyw1NDYuMjU3MzczNTk1NTA1Niw0MzEuMjVDNTI3LjY2MzE4NDY5MTAxMTIsNDE5LjY2NjY2NjY2NjY2NjcsNDkwLjQ3NDgwNjg4MjAyMjQ1LDQxMS4zMzMzMzMzMzMzMzMzLDQ3MS44ODA2MTc5Nzc1MjgwNiw0MDcuMTY2NjY2NjY2NjY2N0w0NTMuMjg2NDI5MDczMDMzNyw0MDMiIGNsYXNzPSJwYXRoIj48L3BhdGg+PGRlZnM+PG1hcmtlciBvcmllbnQ9ImF1dG8iIG1hcmtlckhlaWdodD0iNiIgbWFya2VyV2lkdGg9IjgiIG1hcmtlclVuaXRzPSJzdHJva2VXaWR0aCIgcmVmWT0iNSIgcmVmWD0iOSIgdmlld0JveD0iMCAwIDEwIDEwIiBpZD0iYXJyb3doZWFkNzIiPjxwYXRoIHN0eWxlPSJzdHJva2Utd2lkdGg6IDE7IHN0cm9rZS1kYXNoYXJyYXk6IDEsIDA7IiBjbGFzcz0iYXJyb3doZWFkUGF0aCIgZD0iTSAwIDAgTCAxMCA1IEwgMCAxMCB6Ij48L3BhdGg+PC9tYXJrZXI+PC9kZWZzPjwvZz48ZyBzdHlsZT0ib3BhY2l0eTogMTsiIGlkPSJMLUktSyIgY2xhc3M9ImVkZ2VQYXRoIExTLUkgTEUtSyI+PHBhdGggc3R5bGU9ImZpbGw6bm9uZSIgbWFya2VyLWVuZD0idXJsKCNhcnJvd2hlYWQ3MykiIGQ9Ik0xODkuNjA5Mzc1LDg2MS4wMTMyODI3NzU4Nzg5TDE4OS42MDkzNzUsODY1LjE3OTk0OTQ0MjU0NTVDMTg5LjYwOTM3NSw4NjkuMzQ2NjE2MTA5MjEyMywxODkuNjA5Mzc1LDg3Ny42Nzk5NDk0NDI1NDU1LDE4OS42MDkzNzUsODg2LjAxMzI4Mjc3NTg3ODlDMTg5LjYwOTM3NSw4OTQuMzQ2NjE2MTA5MjEyMywxODkuNjA5Mzc1LDkwMi42Nzk5NDk0NDI1NDU1LDE4OS42MDkzNzUsOTA2Ljg0NjYxNjEwOTIxMjNMMTg5LjYwOTM3NSw5MTEuMDEzMjgyNzc1ODc4OSIgY2xhc3M9InBhdGgiPjwvcGF0aD48ZGVmcz48bWFya2VyIG9yaWVudD0iYXV0byIgbWFya2VySGVpZ2h0PSI2IiBtYXJrZXJXaWR0aD0iOCIgbWFya2VyVW5pdHM9InN0cm9rZVdpZHRoIiByZWZZPSI1IiByZWZYPSI5IiB2aWV3Qm94PSIwIDAgMTAgMTAiIGlkPSJhcnJvd2hlYWQ3MyI+PHBhdGggc3R5bGU9InN0cm9rZS13aWR0aDogMTsgc3Ryb2tlLWRhc2hhcnJheTogMSwgMDsiIGNsYXNzPSJhcnJvd2hlYWRQYXRoIiBkPSJNIDAgMCBMIDEwIDUgTCAwIDEwIHoiPjwvcGF0aD48L21hcmtlcj48L2RlZnM+PC9nPjxnIHN0eWxlPSJvcGFjaXR5OiAxOyIgaWQ9IkwtSy1MIiBjbGFzcz0iZWRnZVBhdGggTFMtSyBMRS1MIj48cGF0aCBzdHlsZT0iZmlsbDpub25lIiBtYXJrZXItZW5kPSJ1cmwoI2Fycm93aGVhZDc0KSIgZD0iTTE4OS42MDkzNzUsOTUwLjAxMzI4Mjc3NTg3ODlMMTg5LjYwOTM3NSw5NTQuMTc5OTQ5NDQyNTQ1NUMxODkuNjA5Mzc1LDk1OC4zNDY2MTYxMDkyMTIzLDE4OS42MDkzNzUsOTY2LjY3OTk0OTQ0MjU0NTUsMTg5LjYwOTM3NSw5NzUuMDEzMjgyNzc1ODc4OUMxODkuNjA5Mzc1LDk4My4zNDY2MTYxMDkyMTIzLDE4OS42MDkzNzUsOTkxLjY3OTk0OTQ0MjU0NTUsMTg5LjYwOTM3NSw5OTUuODQ2NjE2MTA5MjEyM0wxODkuNjA5Mzc1LDEwMDAuMDEzMjgyNzc1ODc4OSIgY2xhc3M9InBhdGgiPjwvcGF0aD48ZGVmcz48bWFya2VyIG9yaWVudD0iYXV0byIgbWFya2VySGVpZ2h0PSI2IiBtYXJrZXJXaWR0aD0iOCIgbWFya2VyVW5pdHM9InN0cm9rZVdpZHRoIiByZWZZPSI1IiByZWZYPSI5IiB2aWV3Qm94PSIwIDAgMTAgMTAiIGlkPSJhcnJvd2hlYWQ3NCI+PHBhdGggc3R5bGU9InN0cm9rZS13aWR0aDogMTsgc3Ryb2tlLWRhc2hhcnJheTogMSwgMDsiIGNsYXNzPSJhcnJvd2hlYWRQYXRoIiBkPSJNIDAgMCBMIDEwIDUgTCAwIDEwIHoiPjwvcGF0aD48L21hcmtlcj48L2RlZnM+PC9nPjwvZz48ZyBjbGFzcz0iZWRnZUxhYmVscyI+PGcgc3R5bGU9Im9wYWNpdHk6IDE7IiB0cmFuc2Zvcm09IiIgY2xhc3M9ImVkZ2VMYWJlbCI+PGcgY2xhc3M9ImxhYmVsIiB0cmFuc2Zvcm09InRyYW5zbGF0ZSgwLDApIj48cmVjdCBoZWlnaHQ9IjAiIHdpZHRoPSIwIiByeT0iMCIgcng9IjAiPjwvcmVjdD48dGV4dD48dHNwYW4geD0iMSIgZHk9IjFlbSIgeG1sOnNwYWNlPSJwcmVzZXJ2ZSI+PC90c3Bhbj48L3RleHQ+PC9nPjwvZz48ZyBzdHlsZT0ib3BhY2l0eTogMTsiIHRyYW5zZm9ybT0iIiBjbGFzcz0iZWRnZUxhYmVsIj48ZyBjbGFzcz0ibGFiZWwiIHRyYW5zZm9ybT0idHJhbnNsYXRlKDAsMCkiPjxyZWN0IGhlaWdodD0iMCIgd2lkdGg9IjAiIHJ5PSIwIiByeD0iMCI+PC9yZWN0Pjx0ZXh0Pjx0c3BhbiB4PSIxIiBkeT0iMWVtIiB4bWw6c3BhY2U9InByZXNlcnZlIj48L3RzcGFuPjwvdGV4dD48L2c+PC9nPjxnIHN0eWxlPSJvcGFjaXR5OiAxOyIgdHJhbnNmb3JtPSIiIGNsYXNzPSJlZGdlTGFiZWwiPjxnIGNsYXNzPSJsYWJlbCIgdHJhbnNmb3JtPSJ0cmFuc2xhdGUoMCwwKSI+PHJlY3QgaGVpZ2h0PSIwIiB3aWR0aD0iMCIgcnk9IjAiIHJ4PSIwIj48L3JlY3Q+PHRleHQ+PHRzcGFuIHg9IjEiIGR5PSIxZW0iIHhtbDpzcGFjZT0icHJlc2VydmUiPjwvdHNwYW4+PC90ZXh0PjwvZz48L2c+PGcgc3R5bGU9Im9wYWNpdHk6IDE7IiB0cmFuc2Zvcm09IiIgY2xhc3M9ImVkZ2VMYWJlbCI+PGcgY2xhc3M9ImxhYmVsIiB0cmFuc2Zvcm09InRyYW5zbGF0ZSgwLDApIj48cmVjdCBoZWlnaHQ9IjAiIHdpZHRoPSIwIiByeT0iMCIgcng9IjAiPjwvcmVjdD48dGV4dD48dHNwYW4geD0iMSIgZHk9IjFlbSIgeG1sOnNwYWNlPSJwcmVzZXJ2ZSI+PC90c3Bhbj48L3RleHQ+PC9nPjwvZz48ZyBzdHlsZT0ib3BhY2l0eTogMTsiIHRyYW5zZm9ybT0iIiBjbGFzcz0iZWRnZUxhYmVsIj48ZyBjbGFzcz0ibGFiZWwiIHRyYW5zZm9ybT0idHJhbnNsYXRlKDAsMCkiPjxyZWN0IGhlaWdodD0iMCIgd2lkdGg9IjAiIHJ5PSIwIiByeD0iMCI+PC9yZWN0Pjx0ZXh0Pjx0c3BhbiB4PSIxIiBkeT0iMWVtIiB4bWw6c3BhY2U9InByZXNlcnZlIj48L3RzcGFuPjwvdGV4dD48L2c+PC9nPjxnIHN0eWxlPSJvcGFjaXR5OiAxOyIgdHJhbnNmb3JtPSIiIGNsYXNzPSJlZGdlTGFiZWwiPjxnIGNsYXNzPSJsYWJlbCIgdHJhbnNmb3JtPSJ0cmFuc2xhdGUoMCwwKSI+PHJlY3QgaGVpZ2h0PSIwIiB3aWR0aD0iMCIgcnk9IjAiIHJ4PSIwIj48L3JlY3Q+PHRleHQ+PHRzcGFuIHg9IjEiIGR5PSIxZW0iIHhtbDpzcGFjZT0icHJlc2VydmUiPjwvdHNwYW4+PC90ZXh0PjwvZz48L2c+PGcgc3R5bGU9Im9wYWNpdHk6IDE7IiB0cmFuc2Zvcm09IiIgY2xhc3M9ImVkZ2VMYWJlbCI+PGcgY2xhc3M9ImxhYmVsIiB0cmFuc2Zvcm09InRyYW5zbGF0ZSgwLDApIj48cmVjdCBoZWlnaHQ9IjAiIHdpZHRoPSIwIiByeT0iMCIgcng9IjAiPjwvcmVjdD48dGV4dD48dHNwYW4geD0iMSIgZHk9IjFlbSIgeG1sOnNwYWNlPSJwcmVzZXJ2ZSI+PC90c3Bhbj48L3RleHQ+PC9nPjwvZz48ZyBzdHlsZT0ib3BhY2l0eTogMTsiIHRyYW5zZm9ybT0idHJhbnNsYXRlKDE4OS42MDkzNzUsNzg3LjUxMzI4Mjc3NTg3ODkpIiBjbGFzcz0iZWRnZUxhYmVsIj48ZyBjbGFzcz0ibGFiZWwiIHRyYW5zZm9ybT0idHJhbnNsYXRlKC0xNy45MTQwNjI1LC05LjUpIj48cmVjdCBoZWlnaHQ9IjE5IiB3aWR0aD0iMzUuODI4MTI1IiByeT0iMCIgcng9IjAiPjwvcmVjdD48dGV4dD48dHNwYW4geD0iMSIgZHk9IjFlbSIgeG1sOnNwYWNlPSJwcmVzZXJ2ZSI+VmFsaWQ8L3RzcGFuPjwvdGV4dD48L2c+PC9nPjxnIHN0eWxlPSJvcGFjaXR5OiAxOyIgdHJhbnNmb3JtPSJ0cmFuc2xhdGUoMzk3LjE1MjM0Mzc1LDc4Ny41MTMyODI3NzU4Nzg5KSIgY2xhc3M9ImVkZ2VMYWJlbCI+PGcgY2xhc3M9ImxhYmVsIiB0cmFuc2Zvcm09InRyYW5zbGF0ZSgtMjMuODU5Mzc1LC05LjUpIj48cmVjdCBoZWlnaHQ9IjE5IiB3aWR0aD0iNDcuNzE4NzUiIHJ5PSIwIiByeD0iMCI+PC9yZWN0Pjx0ZXh0Pjx0c3BhbiB4PSIxIiBkeT0iMWVtIiB4bWw6c3BhY2U9InByZXNlcnZlIj5JbnZhbGlkPC90c3Bhbj48L3RleHQ+PC9nPjwvZz48ZyBzdHlsZT0ib3BhY2l0eTogMTsiIHRyYW5zZm9ybT0iIiBjbGFzcz0iZWRnZUxhYmVsIj48ZyBjbGFzcz0ibGFiZWwiIHRyYW5zZm9ybT0idHJhbnNsYXRlKDAsMCkiPjxyZWN0IGhlaWdodD0iMCIgd2lkdGg9IjAiIHJ5PSIwIiByeD0iMCI+PC9yZWN0Pjx0ZXh0Pjx0c3BhbiB4PSIxIiBkeT0iMWVtIiB4bWw6c3BhY2U9InByZXNlcnZlIj48L3RzcGFuPjwvdGV4dD48L2c+PC9nPjxnIHN0eWxlPSJvcGFjaXR5OiAxOyIgdHJhbnNmb3JtPSIiIGNsYXNzPSJlZGdlTGFiZWwiPjxnIGNsYXNzPSJsYWJlbCIgdHJhbnNmb3JtPSJ0cmFuc2xhdGUoMCwwKSI+PHJlY3QgaGVpZ2h0PSIwIiB3aWR0aD0iMCIgcnk9IjAiIHJ4PSIwIj48L3JlY3Q+PHRleHQ+PHRzcGFuIHg9IjEiIGR5PSIxZW0iIHhtbDpzcGFjZT0icHJlc2VydmUiPjwvdHNwYW4+PC90ZXh0PjwvZz48L2c+PGcgc3R5bGU9Im9wYWNpdHk6IDE7IiB0cmFuc2Zvcm09IiIgY2xhc3M9ImVkZ2VMYWJlbCI+PGcgY2xhc3M9ImxhYmVsIiB0cmFuc2Zvcm09InRyYW5zbGF0ZSgwLDApIj48cmVjdCBoZWlnaHQ9IjAiIHdpZHRoPSIwIiByeT0iMCIgcng9IjAiPjwvcmVjdD48dGV4dD48dHNwYW4geD0iMSIgZHk9IjFlbSIgeG1sOnNwYWNlPSJwcmVzZXJ2ZSI+PC90c3Bhbj48L3RleHQ+PC9nPjwvZz48L2c+PGcgY2xhc3M9Im5vZGVzIj48ZyBzdHlsZT0ib3BhY2l0eTogMTsiIHRyYW5zZm9ybT0idHJhbnNsYXRlKDM2Ni4yNjU2MjUsMjcuNSkiIGlkPSJmbG93Y2hhcnQtQS0yNCIgY2xhc3M9Im5vZGUgZGVmYXVsdCI+PHJlY3QgY2xhc3M9ImxhYmVsLWNvbnRhaW5lciIgaGVpZ2h0PSIzOSIgd2lkdGg9IjIyNC44OTg0Mzc1IiB5PSItMTkuNSIgeD0iLTExMi40NDkyMTg3NSIgcnk9IjAiIHJ4PSIwIj48L3JlY3Q+PGcgdHJhbnNmb3JtPSJ0cmFuc2xhdGUoMCwwKSIgY2xhc3M9ImxhYmVsIj48ZyB0cmFuc2Zvcm09InRyYW5zbGF0ZSgtMTAyLjQ0OTIxODc1LC05LjUpIj48dGV4dCBzdHlsZT0iIj48dHNwYW4geD0iMSIgZHk9IjFlbSIgeG1sOnNwYWNlPSJwcmVzZXJ2ZSI+RW1wbG95ZWUgVXBsb2FkcyBFeGNlbCBGaWxlPC90c3Bhbj48L3RleHQ+PC9nPjwvZz48L2c+PGcgc3R5bGU9Im9wYWNpdHk6IDE7IiB0cmFuc2Zvcm09InRyYW5zbGF0ZSgzNjYuMjY1NjI1LDExNi41KSIgaWQ9ImZsb3djaGFydC1CLTI1IiBjbGFzcz0ibm9kZSBkZWZhdWx0Ij48cmVjdCBjbGFzcz0ibGFiZWwtY29udGFpbmVyIiBoZWlnaHQ9IjM5IiB3aWR0aD0iMzAwLjUzOTA2MjUiIHk9Ii0xOS41IiB4PSItMTUwLjI2OTUzMTI1IiByeT0iMCIgcng9IjAiPjwvcmVjdD48ZyB0cmFuc2Zvcm09InRyYW5zbGF0ZSgwLDApIiBjbGFzcz0ibGFiZWwiPjxnIHRyYW5zZm9ybT0idHJhbnNsYXRlKC0xNDAuMjY5NTMxMjUsLTkuNSkiPjx0ZXh0IHN0eWxlPSIiPjx0c3BhbiB4PSIxIiBkeT0iMWVtIiB4bWw6c3BhY2U9InByZXNlcnZlIj5BSSBQcm9jZXNzZXMgRmlsZSBhbmQgR2VuZXJhdGVzIFJlcG9ydDwvdHNwYW4+PC90ZXh0PjwvZz48L2c+PC9nPjxnIHN0eWxlPSJvcGFjaXR5OiAxOyIgdHJhbnNmb3JtPSJ0cmFuc2xhdGUoMzY2LjI2NTYyNSwyMDUuNSkiIGlkPSJmbG93Y2hhcnQtQy0yNyIgY2xhc3M9Im5vZGUgZGVmYXVsdCI+PHJlY3QgY2xhc3M9ImxhYmVsLWNvbnRhaW5lciIgaGVpZ2h0PSIzOSIgd2lkdGg9IjMxMS45MjE4NzUiIHk9Ii0xOS41IiB4PSItMTU1Ljk2MDkzNzUiIHJ5PSIwIiByeD0iMCI+PC9yZWN0PjxnIHRyYW5zZm9ybT0idHJhbnNsYXRlKDAsMCkiIGNsYXNzPSJsYWJlbCI+PGcgdHJhbnNmb3JtPSJ0cmFuc2xhdGUoLTE0NS45NjA5Mzc1LC05LjUpIj48dGV4dCBzdHlsZT0iIj48dHNwYW4geD0iMSIgZHk9IjFlbSIgeG1sOnNwYWNlPSJwcmVzZXJ2ZSI+RW1wbG95ZWUgUmV2aWV3cyBEb2N1bWVudCBhbmQgUmVwb3J0PC90c3Bhbj48L3RleHQ+PC9nPjwvZz48L2c+PGcgc3R5bGU9Im9wYWNpdHk6IDE7IiB0cmFuc2Zvcm09InRyYW5zbGF0ZSgzNjYuMjY1NjI1LDI5NC41KSIgaWQ9ImZsb3djaGFydC1ELTI5IiBjbGFzcz0ibm9kZSBkZWZhdWx0Ij48cmVjdCBjbGFzcz0ibGFiZWwtY29udGFpbmVyIiBoZWlnaHQ9IjM5IiB3aWR0aD0iMjM2LjA5Mzc1IiB5PSItMTkuNSIgeD0iLTExOC4wNDY4NzUiIHJ5PSIwIiByeD0iMCI+PC9yZWN0PjxnIHRyYW5zZm9ybT0idHJhbnNsYXRlKDAsMCkiIGNsYXNzPSJsYWJlbCI+PGcgdHJhbnNmb3JtPSJ0cmFuc2xhdGUoLTEwOC4wNDY4NzUsLTkuNSkiPjx0ZXh0IHN0eWxlPSIiPjx0c3BhbiB4PSIxIiBkeT0iMWVtIiB4bWw6c3BhY2U9InByZXNlcnZlIj5FbXBsb3llZSBBcHByb3ZlcyBEb2N1bWVudDwvdHNwYW4+PC90ZXh0PjwvZz48L2c+PC9nPjxnIHN0eWxlPSJvcGFjaXR5OiAxOyIgdHJhbnNmb3JtPSJ0cmFuc2xhdGUoMzY2LjI2NTYyNSwzODMuNSkiIGlkPSJmbG93Y2hhcnQtRS0zMSIgY2xhc3M9Im5vZGUgZGVmYXVsdCI+PHJlY3QgY2xhc3M9ImxhYmVsLWNvbnRhaW5lciIgaGVpZ2h0PSIzOSIgd2lkdGg9IjMzNy42NzE4NzUiIHk9Ii0xOS41IiB4PSItMTY4LjgzNTkzNzUiIHJ5PSIwIiByeD0iMCI+PC9yZWN0PjxnIHRyYW5zZm9ybT0idHJhbnNsYXRlKDAsMCkiIGNsYXNzPSJsYWJlbCI+PGcgdHJhbnNmb3JtPSJ0cmFuc2xhdGUoLTE1OC44MzU5Mzc1LC05LjUpIj48dGV4dCBzdHlsZT0iIj48dHNwYW4geD0iMSIgZHk9IjFlbSIgeG1sOnNwYWNlPSJwcmVzZXJ2ZSI+R2VuZXJhdGUgYW5kIFNlbmQgT1RQIHRvIEVtcGxveWVlJ3MgRW1haWw8L3RzcGFuPjwvdGV4dD48L2c+PC9nPjwvZz48ZyBzdHlsZT0ib3BhY2l0eTogMTsiIHRyYW5zZm9ybT0idHJhbnNsYXRlKDIyMC40OTYwOTM3NSw0NzIuNSkiIGlkPSJmbG93Y2hhcnQtRi0zMyIgY2xhc3M9Im5vZGUgZGVmYXVsdCI+PHJlY3QgY2xhc3M9ImxhYmVsLWNvbnRhaW5lciIgaGVpZ2h0PSIzOSIgd2lkdGg9IjE4OS43NjU2MjUiIHk9Ii0xOS41IiB4PSItOTQuODgyODEyNSIgcnk9IjAiIHJ4PSIwIj48L3JlY3Q+PGcgdHJhbnNmb3JtPSJ0cmFuc2xhdGUoMCwwKSIgY2xhc3M9ImxhYmVsIj48ZyB0cmFuc2Zvcm09InRyYW5zbGF0ZSgtODQuODgyODEyNSwtOS41KSI+PHRleHQgc3R5bGU9IiI+PHRzcGFuIHg9IjEiIGR5PSIxZW0iIHhtbDpzcGFjZT0icHJlc2VydmUiPkVtcGxveWVlIFJlY2VpdmVzIE9UUDwvdHNwYW4+PC90ZXh0PjwvZz48L2c+PC9nPjxnIHN0eWxlPSJvcGFjaXR5OiAxOyIgdHJhbnNmb3JtPSJ0cmFuc2xhdGUoMjIwLjQ5NjA5Mzc1LDU2MS41KSIgaWQ9ImZsb3djaGFydC1HLTM1IiBjbGFzcz0ibm9kZSBkZWZhdWx0Ij48cmVjdCBjbGFzcz0ibGFiZWwtY29udGFpbmVyIiBoZWlnaHQ9IjM5IiB3aWR0aD0iMjYxLjEyNSIgeT0iLTE5LjUiIHg9Ii0xMzAuNTYyNSIgcnk9IjAiIHJ4PSIwIj48L3JlY3Q+PGcgdHJhbnNmb3JtPSJ0cmFuc2xhdGUoMCwwKSIgY2xhc3M9ImxhYmVsIj48ZyB0cmFuc2Zvcm09InRyYW5zbGF0ZSgtMTIwLjU2MjUsLTkuNSkiPjx0ZXh0IHN0eWxlPSIiPjx0c3BhbiB4PSIxIiBkeT0iMWVtIiB4bWw6c3BhY2U9InByZXNlcnZlIj5FbXBsb3llZSBFbnRlcnMgT1RQIGludG8gU3lzdGVtPC90c3Bhbj48L3RleHQ+PC9nPjwvZz48L2c+PGcgc3R5bGU9Im9wYWNpdHk6IDE7IiB0cmFuc2Zvcm09InRyYW5zbGF0ZSgyMjAuNDk2MDkzNzUsNjkyLjAwNjY0MTM4NzkzOTUpIiBpZD0iZmxvd2NoYXJ0LUgtMzciIGNsYXNzPSJub2RlIGRlZmF1bHQiPjxwb2x5Z29uIGNsYXNzPSJsYWJlbC1jb250YWluZXIiIHRyYW5zZm9ybT0idHJhbnNsYXRlKC02MS4wMDY2NDA2MjUsNjEuMDA2NjQwNjI1KSIgcG9pbnRzPSI2MS4wMDY2NDA2MjUsMCAxMjIuMDEzMjgxMjUsLTYxLjAwNjY0MDYyNSA2MS4wMDY2NDA2MjUsLTEyMi4wMTMyODEyNSAwLC02MS4wMDY2NDA2MjUiPjwvcG9seWdvbj48ZyB0cmFuc2Zvcm09InRyYW5zbGF0ZSgwLDApIiBjbGFzcz0ibGFiZWwiPjxnIHRyYW5zZm9ybT0idHJhbnNsYXRlKC0zOC4yODUxNTYyNSwtOS41KSI+PHRleHQgc3R5bGU9IiI+PHRzcGFuIHg9IjEiIGR5PSIxZW0iIHhtbDpzcGFjZT0icHJlc2VydmUiPlZlcmlmeSBPVFA8L3RzcGFuPjwvdGV4dD48L2c+PC9nPjwvZz48ZyBzdHlsZT0ib3BhY2l0eTogMTsiIHRyYW5zZm9ybT0idHJhbnNsYXRlKDE4OS42MDkzNzUsODQxLjUxMzI4Mjc3NTg3ODkpIiBpZD0iZmxvd2NoYXJ0LUktMzkiIGNsYXNzPSJub2RlIGRlZmF1bHQiPjxyZWN0IGNsYXNzPSJsYWJlbC1jb250YWluZXIiIGhlaWdodD0iMzkiIHdpZHRoPSIzNjMuMjE4NzUiIHk9Ii0xOS41IiB4PSItMTgxLjYwOTM3NSIgcnk9IjAiIHJ4PSIwIj48L3JlY3Q+PGcgdHJhbnNmb3JtPSJ0cmFuc2xhdGUoMCwwKSIgY2xhc3M9ImxhYmVsIj48ZyB0cmFuc2Zvcm09InRyYW5zbGF0ZSgtMTcxLjYwOTM3NSwtOS41KSI+PHRleHQgc3R5bGU9IiI+PHRzcGFuIHg9IjEiIGR5PSIxZW0iIHhtbDpzcGFjZT0icHJlc2VydmUiPlNhdmUgUmF3IGFuZCBGaW5hbCBSZXBvcnQgdG8gRW50ZXJwcmlzZSBTeXN0ZW08L3RzcGFuPjwvdGV4dD48L2c+PC9nPjwvZz48ZyBzdHlsZT0ib3BhY2l0eTogMTsiIHRyYW5zZm9ybT0idHJhbnNsYXRlKDU0Mi45MjE4NzUsODQxLjUxMzI4Mjc3NTg3ODkpIiBpZD0iZmxvd2NoYXJ0LUotNDEiIGNsYXNzPSJub2RlIGRlZmF1bHQiPjxyZWN0IGNsYXNzPSJsYWJlbC1jb250YWluZXIiIGhlaWdodD0iMzkiIHdpZHRoPSIyNDMuNDA2MjUiIHk9Ii0xOS41IiB4PSItMTIxLjcwMzEyNSIgcnk9IjAiIHJ4PSIwIj48L3JlY3Q+PGcgdHJhbnNmb3JtPSJ0cmFuc2xhdGUoMCwwKSIgY2xhc3M9ImxhYmVsIj48ZyB0cmFuc2Zvcm09InRyYW5zbGF0ZSgtMTExLjcwMzEyNSwtOS41KSI+PHRleHQgc3R5bGU9IiI+PHRzcGFuIHg9IjEiIGR5PSIxZW0iIHhtbDpzcGFjZT0icHJlc2VydmUiPk5vdGlmeSBFbXBsb3llZSBvZiBJbnZhbGlkIE9UUDwvdHNwYW4+PC90ZXh0PjwvZz48L2c+PC9nPjxnIHN0eWxlPSJvcGFjaXR5OiAxOyIgdHJhbnNmb3JtPSJ0cmFuc2xhdGUoMTg5LjYwOTM3NSw5MzAuNTEzMjgyNzc1ODc4OSkiIGlkPSJmbG93Y2hhcnQtSy00NSIgY2xhc3M9Im5vZGUgZGVmYXVsdCI+PHJlY3QgY2xhc3M9ImxhYmVsLWNvbnRhaW5lciIgaGVpZ2h0PSIzOSIgd2lkdGg9IjIwMC42MjUiIHk9Ii0xOS41IiB4PSItMTAwLjMxMjUiIHJ5PSIwIiByeD0iMCI+PC9yZWN0PjxnIHRyYW5zZm9ybT0idHJhbnNsYXRlKDAsMCkiIGNsYXNzPSJsYWJlbCI+PGcgdHJhbnNmb3JtPSJ0cmFuc2xhdGUoLTkwLjMxMjUsLTkuNSkiPjx0ZXh0IHN0eWxlPSIiPjx0c3BhbiB4PSIxIiBkeT0iMWVtIiB4bWw6c3BhY2U9InByZXNlcnZlIj5Db21wbGV0aW9uIENvbmZpcm1hdGlvbjwvdHNwYW4+PC90ZXh0PjwvZz48L2c+PC9nPjxnIHN0eWxlPSJvcGFjaXR5OiAxOyIgdHJhbnNmb3JtPSJ0cmFuc2xhdGUoMTg5LjYwOTM3NSwxMDE5LjUxMzI4Mjc3NTg3ODkpIiBpZD0iZmxvd2NoYXJ0LUwtNDciIGNsYXNzPSJub2RlIGRlZmF1bHQiPjxyZWN0IGNsYXNzPSJsYWJlbC1jb250YWluZXIiIGhlaWdodD0iMzkiIHdpZHRoPSIxMjMuNDY4NzUiIHk9Ii0xOS41IiB4PSItNjEuNzM0Mzc1IiByeT0iMCIgcng9IjAiPjwvcmVjdD48ZyB0cmFuc2Zvcm09InRyYW5zbGF0ZSgwLDApIiBjbGFzcz0ibGFiZWwiPjxnIHRyYW5zZm9ybT0idHJhbnNsYXRlKC01MS43MzQzNzUsLTkuNSkiPjx0ZXh0IHN0eWxlPSIiPjx0c3BhbiB4PSIxIiBkeT0iMWVtIiB4bWw6c3BhY2U9InByZXNlcnZlIj5FbmQgb2YgUHJvY2VzczwvdHNwYW4+PC90ZXh0PjwvZz48L2c+PC9nPjwvZz48L2c+PC9nPjwvc3ZnPg==;" vertex="1" parent="1">
                        <mxGeometry x="370" y="-120" width="170" height="1047.01" as="geometry"/>
                    </mxCell>
                </UserObject>
            </root>
        </mxGraphModel>
    </diagram>
</mxfile>